<svg id="ab7cfc9c-7889-4c02-ad76-638b0ef454c3" data-name="Слой 1" xmlns="http://www.w3.org/2000/svg" viewBox="0 0 128.31 35.94"><defs><style>.ba1b09d4-5fa3-4945-bcf3-f3cfc0c2aa3a{fill:#2962ff;}.a5b90e4d-357a-4acf-a49a-8452ef491587{fill:#fdfdfc;}</style></defs><path class="ba1b09d4-5fa3-4945-bcf3-f3cfc0c2aa3a" d="M28.49,9.42,31,9.37h2.49a17.45,17.45,0,0,1,4.83.58,7.27,7.27,0,0,1,5.25,5.11,16.22,16.22,0,0,1,.62,4.84A17.69,17.69,0,0,1,43.55,25a7.58,7.58,0,0,1-2,3.37,8,8,0,0,1-3.46,1.86,19.11,19.11,0,0,1-5.07.58H28.49Zm6.34,18.21a3.93,3.93,0,0,0,2.55-.76A5.08,5.08,0,0,0,38.85,25a8.51,8.51,0,0,0,.68-2.52,21.81,21.81,0,0,0,.17-2.61,18.19,18.19,0,0,0-.18-2.51,7.51,7.51,0,0,0-.7-2.34,4.67,4.67,0,0,0-1.47-1.74,4.14,4.14,0,0,0-2.46-.68H33.05V27.63Z" transform="translate(-0.35 -1.48)"/><path class="ba1b09d4-5fa3-4945-bcf3-f3cfc0c2aa3a" d="M45.42,20.09a14.16,14.16,0,0,1,.68-4.47,9.91,9.91,0,0,1,2-3.53,9.3,9.3,0,0,1,3.29-2.32,12.51,12.51,0,0,1,9,0,9.3,9.3,0,0,1,3.29,2.32,9.91,9.91,0,0,1,2,3.53,14.16,14.16,0,0,1,.68,4.47,14.18,14.18,0,0,1-.68,4.48,9.78,9.78,0,0,1-2,3.52,9.38,9.38,0,0,1-3.29,2.3,12.51,12.51,0,0,1-9,0,9.38,9.38,0,0,1-3.29-2.3,9.78,9.78,0,0,1-2-3.52A14.18,14.18,0,0,1,45.42,20.09Zm4.92,0a20.78,20.78,0,0,0,.2,2.88,7.19,7.19,0,0,0,.77,2.49A4.5,4.5,0,0,0,53,27.26a6.64,6.64,0,0,0,5.77,0,4.77,4.77,0,0,0,1.68-1.75A7.28,7.28,0,0,0,61.21,23a21.19,21.19,0,0,0,.19-2.9,20.92,20.92,0,0,0-.19-2.86,7.17,7.17,0,0,0-.8-2.52A4.76,4.76,0,0,0,58.72,13a5.27,5.27,0,0,0-2.86-.68A5.18,5.18,0,0,0,53,13a4.86,4.86,0,0,0-1.68,1.81,7.85,7.85,0,0,0-.8,2.52A19.25,19.25,0,0,0,50.34,20.12Z" transform="translate(-0.35 -1.48)"/><path class="ba1b09d4-5fa3-4945-bcf3-f3cfc0c2aa3a" d="M73.5,9.42,82,23.71V9.42h4.27V30.77H81.57l-8.45-14v14H68.85V9.42Z" transform="translate(-0.35 -1.48)"/><path class="ba1b09d4-5fa3-4945-bcf3-f3cfc0c2aa3a" d="M89.82,9.42h4.56l0,21.35H89.84Z" transform="translate(-0.35 -1.48)"/><path class="ba1b09d4-5fa3-4945-bcf3-f3cfc0c2aa3a" d="M105.62,12.93a2.27,2.27,0,0,0-1.78-.66,2.1,2.1,0,0,0-1.55.57,2.37,2.37,0,0,0-.61,1.68,2.39,2.39,0,0,0,.68,1.85,7.14,7.14,0,0,0,1.77,1.25c.7.36,1.46.73,2.29,1.1a10.17,10.17,0,0,1,2.32,1.4,6.6,6.6,0,0,1,2.46,5.52,4.87,4.87,0,0,1-.64,2.52A6.14,6.14,0,0,1,108.93,30a7.21,7.21,0,0,1-2.27,1.13,9,9,0,0,1-2.55.38,9.64,9.64,0,0,1-2.71-.38A6.7,6.7,0,0,1,99.13,30,6,6,0,0,1,97.57,28a6,6,0,0,1-.58-2.7h4.42a2.86,2.86,0,0,0,.77,2,2.65,2.65,0,0,0,2,.83,2.36,2.36,0,0,0,1-.22,2.69,2.69,0,0,0,.81-.59,3.08,3.08,0,0,0,.55-.86,2.67,2.67,0,0,0,.21-1.06,2.34,2.34,0,0,0-.7-1.75,7.51,7.51,0,0,0-1.75-1.23c-.7-.36-1.46-.73-2.27-1.09A12,12,0,0,1,99.81,20a6.73,6.73,0,0,1-1.73-1.94,5.57,5.57,0,0,1-.7-2.94,5.64,5.64,0,0,1,.55-2.56,5.21,5.21,0,0,1,1.46-1.84,6.48,6.48,0,0,1,2.14-1.1,8.6,8.6,0,0,1,2.55-.37,6.75,6.75,0,0,1,4.58,1.42,5.22,5.22,0,0,1,1.71,4l-4.18,0A2.55,2.55,0,0,0,105.62,12.93Z" transform="translate(-0.35 -1.48)"/><path class="ba1b09d4-5fa3-4945-bcf3-f3cfc0c2aa3a" d="M117.63,9.42v8.9h6.47V9.42h4.57V30.77H124.1V21.46h-6.47v9.31h-4.56V9.42Z" transform="translate(-0.35 -1.48)"/><path class="ba1b09d4-5fa3-4945-bcf3-f3cfc0c2aa3a" d="M25.58,6.45,6.36,9.69,6.3,37.42l19.3-3.48Q25.59,20.19,25.58,6.45Z" transform="translate(-0.35 -1.48)"/><path class="ba1b09d4-5fa3-4945-bcf3-f3cfc0c2aa3a" d="M3.38,7,5.29,8V34.34l-1.91.38Z" transform="translate(-0.35 -1.48)"/><path class="ba1b09d4-5fa3-4945-bcf3-f3cfc0c2aa3a" d="M23.2,3.93,3.38,7l.1,1.9,19.7-3.31Z" transform="translate(-0.35 -1.48)"/><path class="ba1b09d4-5fa3-4945-bcf3-f3cfc0c2aa3a" d="M.36,4.46l1.91,1V31.84l-1.91.38Z" transform="translate(-0.35 -1.48)"/><path class="ba1b09d4-5fa3-4945-bcf3-f3cfc0c2aa3a" d="M20.19,1.48.35,4.39.39,6,20.13,2.88Z" transform="translate(-0.35 -1.48)"/><path class="a5b90e4d-357a-4acf-a49a-8452ef491587" d="M12.4,23.6v.66a3.55,3.55,0,0,0,.77,2.42,2.51,2.51,0,0,0,2,.87,6.73,6.73,0,0,0,2.68-.6,14.72,14.72,0,0,0,2.75-1.6c.92-.67,2-1.56,3.35-2.68v1.6a32.53,32.53,0,0,1-5.59,5.48A8.94,8.94,0,0,1,13,31.66a4.41,4.41,0,0,1-3.71-1.83,8.1,8.1,0,0,1-1.36-5,9.91,9.91,0,0,1,1.3-5,18.92,18.92,0,0,1,4.22-4.74,16.19,16.19,0,0,1,4-2.58A8.84,8.84,0,0,1,21,11.66a3.12,3.12,0,0,1,2,.57,2,2,0,0,1,.72,1.69,5.53,5.53,0,0,1-1.24,3.31,14.46,14.46,0,0,1-3.79,3.26A39.48,39.48,0,0,1,12.4,23.6Zm.26-1.71a15.08,15.08,0,0,0,4.06-2.29A11.86,11.86,0,0,0,19.21,17,4.16,4.16,0,0,0,20,15.16c0-.41-.19-.61-.56-.61a3.83,3.83,0,0,0-1.54.6,13.13,13.13,0,0,0-2.16,1.58,11.54,11.54,0,0,0-2,2.29A7.46,7.46,0,0,0,12.66,21.89Z" transform="translate(-0.35 -1.48)"/></svg>