<svg id="Слой_1" data-name="Слой 1" xmlns="http://www.w3.org/2000/svg" xmlns:xlink="http://www.w3.org/1999/xlink" viewBox="0 0 546.65 798.12"><defs><style>.cls-1{fill:#4d3920;}.cls-1,.cls-2{fill-rule:evenodd;}.cls-2{fill:url(#Безымянный_градиент);}.cls-3{fill:url(#Безымянный_градиент_2);}</style><linearGradient id="Безымянный_градиент" x1="14702.48" y1="-7116.81" x2="14854.09" y2="-23870.16" gradientTransform="matrix(0.03, 0, 0, -0.03, -118.54, 143.36)" gradientUnits="userSpaceOnUse"><stop offset="0" stop-color="#4d3920"/><stop offset="1" stop-color="#1f1b20"/></linearGradient><linearGradient id="Безымянный_градиент_2" x1="14821.15" y1="-15859.14" x2="14821.37" y2="-16370.24" gradientTransform="matrix(0.03, 0, 0, -0.03, -145.23, 121.48)" xlink:href="#Безымянный_градиент"/></defs><g id="Слой_1-2" data-name="Слой_1"><g id="_2275617870832" data-name=" 2275617870832"><polygon class="cls-1" points="517.87 183.87 513.95 182.16 513.95 207.96 517.87 210.25 517.87 183.87"/><polygon class="cls-1" points="523.79 186.98 519.87 185.27 519.87 211.07 523.79 213.36 523.79 186.98"/><polygon class="cls-1" points="529.85 190.07 525.94 188.35 525.94 214.15 529.85 216.44 529.85 190.07"/><polygon class="cls-1" points="521.38 464.33 525.2 465.59 525.23 221.88 521.35 219.42 521.38 464.33"/><polygon class="cls-1" points="273.45 10.15 341.39 37.72 341.39 43.55 273.65 16.33 273.45 10.15"/><polygon class="cls-1" points="273.45 19.73 341.39 47.31 341.39 53.14 273.65 25.92 273.45 19.73"/><path class="cls-1" d="M282.62,77.33l-7.7,2.83-.28-12.76a13.23,13.23,0,0,1,8-2.79Z" transform="translate(-26.69 -21.88)"/><path class="cls-1" d="M58,287.51l0-7.87c2.5-1.85,2.59-2.19,5.71-1.85C63.94,284,65.11,288,58,287.51Z" transform="translate(-26.69 -21.88)"/><path class="cls-1" d="M109.44,380.53c-7.37-1.48-5.39-2.19-5.47-10.31C111.36,371.3,109.65,373.15,109.44,380.53Z" transform="translate(-26.69 -21.88)"/><path class="cls-1" d="M109.41,243.39l.27,8.4-5.57-1.19-.24-9.13c3.88.58,2.13.06,5.54,1.92Z" transform="translate(-26.69 -21.88)"/><path class="cls-1" d="M40.43,314.51l.11-8.12,5.2-2.57C47,311.48,47.32,313.53,40.43,314.51Z" transform="translate(-26.69 -21.88)"/><path class="cls-1" d="M109.57,269.7c-3.56.6-1.84.31-5.24-.68l-.48-9C111.05,261,109.91,262.85,109.57,269.7Z" transform="translate(-26.69 -21.88)"/><path class="cls-1" d="M46.19,294.11a10.26,10.26,0,0,1-5.73,2.24l.11-8.64,5.44-2,.18,8.41Z" transform="translate(-26.69 -21.88)"/><polygon class="cls-1" points="19.4 309.22 13.84 311.42 13.86 302.14 19.28 300.5 19.4 309.22"/><path class="cls-1" d="M109.45,343.41l-5.22-1.18-.35-9.1C110.66,334.23,110.16,336.17,109.45,343.41Z" transform="translate(-26.69 -21.88)"/><path class="cls-1" d="M66.8,248c-.08-6.48-1.78-10.33,5.45-9.58C72.22,245.19,74.09,247.39,66.8,248Z" transform="translate(-26.69 -21.88)"/><path class="cls-1" d="M100.8,266.67c-7.33-.81-5.58-3.07-5.3-10.19C102.74,258,100.85,259.21,100.8,266.67Z" transform="translate(-26.69 -21.88)"/><path class="cls-1" d="M72.23,282.78A10.11,10.11,0,0,1,66.87,285c-.29-6.56-1.61-10.52,5.33-10.12Z" transform="translate(-26.69 -21.88)"/><path class="cls-1" d="M49.12,365.58l.07-8.67,5.17-1.78c.63,7,1.88,9.74-5.24,10.45Z" transform="translate(-26.69 -21.88)"/><path class="cls-1" d="M58.19,306.85c0-7.51-1.89-9.12,5.32-10.21C63.66,304.22,65.45,305.77,58.19,306.85Z" transform="translate(-26.69 -21.88)"/><path class="cls-1" d="M109.53,225.49l0,8.31-5.38-1.89-.3-8.92C106.59,223.62,108.12,224.25,109.53,225.49Z" transform="translate(-26.69 -21.88)"/><path class="cls-1" d="M127,333c-7.36-1.34-5.3-2.66-5.34-10.34C129,324,127,325.28,127,333Z" transform="translate(-26.69 -21.88)"/><path class="cls-1" d="M72,320.21l-5.14,1.5c0-8.24-1.9-9.24,5.15-10.85Z" transform="translate(-26.69 -21.88)"/><path class="cls-1" d="M63.59,246.61c0,5-.83,4.5-5.36,5.11-.15-7.45-1.84-9,5.31-10.14l.05,5Z" transform="translate(-26.69 -21.88)"/><path class="cls-1" d="M63.55,356.85c0,4.8-.51,4.35-5.24,5-.18-7.46-1.92-9.11,5.25-10.18Z" transform="translate(-26.69 -21.88)"/><path class="cls-1" d="M66.83,376.75l0-8.84,4.92-1.85C72.64,373.3,73.68,375.75,66.83,376.75Z" transform="translate(-26.69 -21.88)"/><path class="cls-1" d="M127,287.32l.08,9c-7-1.06-5.61-3.08-5.42-10.13Z" transform="translate(-26.69 -21.88)"/><path class="cls-1" d="M100.82,294.7v8.47c-7-1-5.86-3.17-5.28-10.35Z" transform="translate(-26.69 -21.88)"/><path class="cls-1" d="M63.46,341.9l-5.3,1.9,0-8.72c3.4-1.77,1.89-1.3,5.43-1.85Z" transform="translate(-26.69 -21.88)"/><path class="cls-1" d="M100.76,312.55l0,8.94c-6.93-1-5.59-2.94-5.31-10.19l5.28,1.25Z" transform="translate(-26.69 -21.88)"/><polygon class="cls-1" points="19.41 254.13 13.87 256.31 13.96 247.13 19.11 245.47 19.41 254.13"/><path class="cls-1" d="M66.78,303.09c.06-7.72-1.83-8.55,5.28-10.23C72.2,300,74.11,302.16,66.78,303.09Z" transform="translate(-26.69 -21.88)"/><path class="cls-1" d="M75.23,281.62c0-7.85-1.82-8.57,5.17-10C80.77,278.46,82.39,281.08,75.23,281.62Z" transform="translate(-26.69 -21.88)"/><path class="cls-1" d="M127,277.75c-7.22-1-5.28-2.55-5.22-10.13C128.74,268.91,127.12,270.29,127,277.75Z" transform="translate(-26.69 -21.88)"/><polygon class="cls-1" points="82.43 276.08 83.03 285.02 77.5 283.74 77.21 274.7 82.43 276.08"/><path class="cls-1" d="M80.57,262c-3.45,1.54-1.87,1.22-5.31,1.58l0-8.75,5.22-1.66Z" transform="translate(-26.69 -21.88)"/><path class="cls-1" d="M92.17,291.4l.2,8.83c-7.07-1-5.77-2.92-5.27-10.24Z" transform="translate(-26.69 -21.88)"/><polygon class="cls-1" points="65.5 214.38 65.6 223.62 60.41 222.07 60.28 213 65.5 214.38"/><path class="cls-1" d="M100.74,276.22l.06,8.73c-3.11-.51-3.49-.77-5.34-2.2l0-7.86C98,274.73,98.87,275.32,100.74,276.22Z" transform="translate(-26.69 -21.88)"/><path class="cls-1" d="M66.83,266.6c0-7.46-1.88-8.59,5.21-10.09C72.2,263.46,74,266,66.83,266.6Z" transform="translate(-26.69 -21.88)"/><polygon class="cls-1" points="65.74 306.56 65.67 315.3 60.25 313.46 60.34 304.72 65.74 306.56"/><polygon class="cls-1" points="82.45 294.57 82.95 303.65 77.65 302.14 77.27 292.87 82.45 294.57"/><polygon class="cls-1" points="65.68 287.89 65.72 296.9 60.46 295.29 60.23 286.55 65.68 287.89"/><path class="cls-1" d="M92.13,254.73l.29,8.85c-3.38-.41-2.07-.2-5.29-1.53l-.23-2.36.09-6.31Z" transform="translate(-26.69 -21.88)"/><path class="cls-1" d="M100.53,248.32l-4.71-1.44-.48-9.06c6.85,1.36,6.06,2.63,5.19,10.5Z" transform="translate(-26.69 -21.88)"/><path class="cls-1" d="M62.84,268.62l-4.53,1.88c-.26-7.79-2-9.57,5.27-10.43C63.6,263.6,64.06,265.5,62.84,268.62Z" transform="translate(-26.69 -21.88)"/><polygon class="cls-1" points="91.76 316.87 91.74 325.56 86.34 323.75 86.42 314.92 91.76 316.87"/><polygon class="cls-1" points="27.84 250.42 22.59 252.31 22.49 243.33 27.71 241.49 27.84 250.42"/><polygon class="cls-1" points="27.87 305.49 22.55 307.39 22.54 298.52 27.75 296.56 27.87 305.49"/><polygon class="cls-1" points="27.96 323.58 22.72 325.87 22.43 316.9 27.59 314.79 27.96 323.58"/><polygon class="cls-1" points="65.51 324.64 65.7 333.45 60.38 331.91 60.23 328.42 60.34 323.1 65.51 324.64"/><polygon class="cls-1" points="91.56 353.36 91.83 362.34 86.53 360.82 86.32 351.98 91.56 353.36"/><path class="cls-1" d="M126.44,360.77c.91,3.14.58,5,.54,8.68-7.21-.77-5.37-2.54-5.19-10.1l4.65,1.42Z" transform="translate(-26.69 -21.88)"/><polygon class="cls-1" points="53.92 331.66 48.65 333.76 48.56 324.63 53.72 323.02 53.92 331.66"/><polygon class="cls-1" points="91.76 298.31 91.75 307.12 86.54 305.59 86.32 296.82 91.76 298.31"/><polygon class="cls-1" points="53.94 276.6 48.59 278.69 48.6 269.53 53.67 267.98 53.94 276.6"/><polygon class="cls-1" points="91.68 243.2 91.79 252.06 86.56 250.54 86.32 241.74 91.68 243.2"/><polygon class="cls-1" points="91.59 335.02 91.68 344.02 86.44 342.2 86.34 333.42 91.59 335.02"/><polygon class="cls-1" points="45.23 206.82 40.26 208.19 40.12 199.3 45.23 197.33 45.23 206.82"/><path class="cls-1" d="M100.35,367.3l.49,9.21-5.06-1.7a8,8,0,0,1-.43-3l.06-6Z" transform="translate(-26.69 -21.88)"/><polygon class="cls-1" points="65.45 343.47 65.56 352.55 60.37 350.59 60.22 347.11 60.35 341.89 65.45 343.47"/><polygon class="cls-1" points="27.89 213.51 22.73 215.63 22.41 206.97 27.79 204.8 27.89 213.51"/><polygon class="cls-1" points="27.82 360.61 22.56 362.48 22.58 353.64 27.73 351.71 27.82 360.61"/><path class="cls-1" d="M62.93,323.74l-4.63,1.77,0-8.84,5-2.14C63.64,318.59,64,320.76,62.93,323.74Z" transform="translate(-26.69 -21.88)"/><polygon class="cls-1" points="65.36 250.96 65.69 260.17 60.37 258.56 60.21 250.03 65.36 250.96"/><polygon class="cls-1" points="53.86 295.15 48.64 297.11 48.62 288.25 53.8 286.37 53.86 295.15"/><path class="cls-1" d="M62.79,378.83l-4.38,1.77c-.35-7.65-2.16-9.31,5.2-10.38,0,1.29.09,3.23,0,4.46Z" transform="translate(-26.69 -21.88)"/><polygon class="cls-1" points="91.46 224.78 91.67 233.82 86.41 232.08 86.4 223.31 91.46 224.78"/><polygon class="cls-1" points="53.69 313.48 48.7 315.38 48.64 306.2 53.74 304.6 53.69 313.48"/><path class="cls-1" d="M126.45,305.65c.92,3.13.6,5.38.43,9.08l-4.81-1.58-.41-8.94,4.79,1.44Z" transform="translate(-26.69 -21.88)"/><polygon class="cls-1" points="74.16 327.88 74.1 336.36 69.19 335.17 68.7 326.14 74.16 327.88"/><path class="cls-1" d="M117.66,228.58l.66,8.67-5.21-1.62L113,227c4.51.26,2.58.57,4.67,1.55Z" transform="translate(-26.69 -21.88)"/><path class="cls-1" d="M282.77,103.68c-2.76,1.48-4.52,2.76-8.1,2.63l-.06-12a11.94,11.94,0,0,1,8.23-3Z" transform="translate(-26.69 -21.88)"/><path class="cls-1" d="M282.73,261.54c-3,1.46-4.75,2.59-8,2.54l-.12-6.26.17-6.07c3.43-1.74,4.13-2.44,8-2.53l0,12.32Z" transform="translate(-26.69 -21.88)"/><path class="cls-1" d="M282.76,287.75l-7.57,3.31c-1.47-13.41-.9-15.19,7.51-15.55Z" transform="translate(-26.69 -21.88)"/><path class="cls-1" d="M282.71,182.76l-7.79,3-.29-12.8c2.5-1.48,4.53-2.68,8.06-2.92Z" transform="translate(-26.69 -21.88)"/><path class="cls-1" d="M257.38,219.51c-2.87,1.86-4.85,2.82-7.78,2.37l0-12.16c2.82-1.81,4.43-2.64,7.8-2.9v12.69Z" transform="translate(-26.69 -21.88)"/><path class="cls-1" d="M294.78,73.42l-7.7,2.84-.28-12.77a13.23,13.23,0,0,1,8-2.79Z" transform="translate(-26.69 -21.88)"/><path class="cls-1" d="M361.19,188.57l.09,13.09a19.65,19.65,0,0,1-8-3l.1-12.49Z" transform="translate(-26.69 -21.88)"/><path class="cls-1" d="M336.12,230.52l0,12.51c-10.11-.33-8.23-5.37-7.77-15.23l7.75,2.72Z" transform="translate(-26.69 -21.88)"/><path class="cls-1" d="M282.79,156.1l-7.74,3.46-.39-12.92a14,14,0,0,1,8.06-2.81Z" transform="translate(-26.69 -21.88)"/><path class="cls-1" d="M294.73,125.82c-2.17,1.19-4.78,2.57-7.74,2.66l-.15-12.39c3.14-1.77,4.09-2.62,7.83-2.88l.06,12.61Z" transform="translate(-26.69 -21.88)"/><path class="cls-1" d="M361,96.25a11.92,11.92,0,0,1-7.33-2.86l-.36-12.55C363.46,83.06,361.93,85,361,96.25Z" transform="translate(-26.69 -21.88)"/><path class="cls-1" d="M294.81,178.23c-2.45,1.34-4.6,2.72-7.93,2.67V168.5c2.32-1.2,4.4-2.61,7.67-2.72Z" transform="translate(-26.69 -21.88)"/><path class="cls-1" d="M282.76,314l-7.67,3.38-.41-12.87c2.95-1.95,4.63-2.68,8-2.86l.08,12.35Z" transform="translate(-26.69 -21.88)"/><path class="cls-1" d="M262.71,85.37c-1.09-10.7-2.08-13.46,7.2-15.47C270.31,78.76,272.21,84.94,262.71,85.37Z" transform="translate(-26.69 -21.88)"/><path class="cls-1" d="M336.09,99.05l0,12.77L328.17,109l0-12.45c3.14-.28,5.57,1.42,7.95,2.51Z" transform="translate(-26.69 -21.88)"/><path class="cls-1" d="M244.86,146.77l-7.32,2.57c-1.31-10.69-2.18-14.11,7.39-15.5l-.07,12.93Z" transform="translate(-26.69 -21.88)"/><path class="cls-1" d="M183.93,128.1c-3.49-.41-5-1.31-7.61-2.77l0-12.3c10.07.83,8.22,5.61,7.64,15.07Z" transform="translate(-26.69 -21.88)"/><path class="cls-1" d="M335.94,72.55l.22,12.63c-8.78-.73-8.76-2.64-7.71-15.25l7.49,2.62Z" transform="translate(-26.69 -21.88)"/><path class="cls-1" d="M294.71,99.49c-2.1,1-4.76,2.66-7.64,2.64l-.29-12.31c2.07-1.3,4.79-2.79,7.91-2.81l0,12.48Z" transform="translate(-26.69 -21.88)"/><path class="cls-1" d="M294.78,309.92c-2.46,1.09-4.64,2.53-7.86,2.66l-.08-12.4c2-1.05,4.9-2.7,7.77-2.76l.17,12.5Z" transform="translate(-26.69 -21.88)"/><path class="cls-1" d="M361.12,162.54l.11,12.84-7.9-2.81V160.1c3.13-.26,5.06,1,7.8,2.44Z" transform="translate(-26.69 -21.88)"/><path class="cls-1" d="M336.07,256.82,336,269.67l-7.83-2.83,0-12.37c3.23-.29,5.44,1.29,7.92,2.35Z" transform="translate(-26.69 -21.88)"/><path class="cls-1" d="M361.07,268.09l.2,12.28a11.79,11.79,0,0,1-7.92-3.21l-.05-11.64C356.58,265.17,358.74,266.41,361.07,268.09Z" transform="translate(-26.69 -21.88)"/><path class="cls-1" d="M257.41,193.15c-2.31,1-4.84,2.7-7.77,2.53l-.08-12.3a18.43,18.43,0,0,1,7.76-2.82l.09,12.59Z" transform="translate(-26.69 -21.88)"/><path class="cls-1" d="M336,178.41l.09,12.14-7.89-2.41,0-13c3.64.51,5.26,1.1,7.77,3.24Z" transform="translate(-26.69 -21.88)"/><path class="cls-1" d="M323.59,93.58l.06,12.72a13.32,13.32,0,0,1-7.84-2.8l-.12-7.31.23-5.06,7.67,2.45Z" transform="translate(-26.69 -21.88)"/><path class="cls-1" d="M294.77,231.27l-7.62,2.9-.41-12.68c1.94-1.17,4.93-2.86,7.7-3.27Z" transform="translate(-26.69 -21.88)"/><path class="cls-1" d="M336,125.25,336,138l-7.88-2.75.08-12.48c3.26-.16,5.2,1.32,7.78,2.45Z" transform="translate(-26.69 -21.88)"/><path class="cls-1" d="M348.63,275.05l-7.48-2.92,0-7.77,0-4.46c9.27-.76,8.5,6.61,7.43,15.15Z" transform="translate(-26.69 -21.88)"/><path class="cls-1" d="M335.89,204.56l.22,12.3a12.07,12.07,0,0,1-7.64-3l-.25-12.5c3.49.54,5,.87,7.67,3.15Z" transform="translate(-26.69 -21.88)"/><path class="cls-1" d="M294.77,152l-7.69,3.12-.24-12.9c2.67-1.41,4.35-2.61,7.75-2.75l.18,12.53Z" transform="translate(-26.69 -21.88)"/><path class="cls-1" d="M257.41,324.88l-7.67,2.84-.2-12.64a16.55,16.55,0,0,1,7.82-2.91l.05,12.71Z" transform="translate(-26.69 -21.88)"/><path class="cls-1" d="M348.78,209.59l.15,12.5a12.67,12.67,0,0,1-7.72-2.85l0-12.4A17.89,17.89,0,0,1,348.78,209.59Z" transform="translate(-26.69 -21.88)"/><path class="cls-1" d="M184,141.58l.05,12.84c-5.57-.77-7.89-1.1-7.9-6.85v-2.8l.15-5.56,7.7,2.37Z" transform="translate(-26.69 -21.88)"/><path class="cls-1" d="M361.19,320.48l0,12.63-7.86-2.7,0-12.33C356.47,317.77,358.76,319.36,361.19,320.48Z" transform="translate(-26.69 -21.88)"/><path class="cls-1" d="M323.48,172.8l.19,2.8-.08,9.83-7.6-2.68-.25-12.58c3.26-.06,5.47,1.14,7.74,2.63Z" transform="translate(-26.69 -21.88)"/><path class="cls-1" d="M184,233.11l-7.73-2.18-.08-12.61C186.61,219.31,184.15,223,184,233.11Z" transform="translate(-26.69 -21.88)"/><path class="cls-1" d="M311.68,247.57l-.16,12.63c-10-1.45-7.53-5.71-7.56-15.16A18.09,18.09,0,0,1,311.68,247.57Z" transform="translate(-26.69 -21.88)"/><path class="cls-1" d="M311.5,116l.09,12.57a16.62,16.62,0,0,1-7.61-2.92l-.17-12.13C306.91,113.23,309,114.38,311.5,116Z" transform="translate(-26.69 -21.88)"/><path class="cls-1" d="M348.73,183.32l.14,12.4c-3.25.06-4.92-1.13-7.7-2.76l.05-12.32c3.18,0,5.45,1.41,7.51,2.68Z" transform="translate(-26.69 -21.88)"/><path class="cls-1" d="M294.67,257.39l-7.44,3.08-.43-12.76c2.19-1.33,4.55-2.69,7.89-2.74l0,12.42Z" transform="translate(-26.69 -21.88)"/><path class="cls-1" d="M360.94,294.25l.28,12.7-7.8-2.81-.08-12.35c2.89-.36,5.07.69,7.6,2.46Z" transform="translate(-26.69 -21.88)"/><path class="cls-1" d="M257.41,87.78c-2.32,1.54-4.57,2.89-7.73,2.33l-.11-12.06,7.51-3.13.33,12.86Z" transform="translate(-26.69 -21.88)"/><path class="cls-1" d="M348.87,157.1v12.44L341.17,167V154.34A13.8,13.8,0,0,1,348.87,157.1Z" transform="translate(-26.69 -21.88)"/><path class="cls-1" d="M323.55,67.62l0,12.37-7.84-2.55.05-12.64A18.78,18.78,0,0,1,323.55,67.62Z" transform="translate(-26.69 -21.88)"/><path class="cls-1" d="M323.47,146.06l.07,13.1c-2.33-.2-5.7-1.75-7.51-2.73l-.21-12.87,7.65,2.5Z" transform="translate(-26.69 -21.88)"/><path class="cls-1" d="M348.87,104.26l0,12.93c-2.9-.35-6.28-1.5-7.17-3.41s-.43-9.63-.32-12.2Z" transform="translate(-26.69 -21.88)"/><path class="cls-1" d="M361,214.91l.26,13a14.46,14.46,0,0,1-7.52-2.78l-.44-12.67Z" transform="translate(-26.69 -21.88)"/><polygon class="cls-1" points="268.06 182.68 260.5 185.93 260.16 172.83 267.77 169.78 268.06 182.68"/><path class="cls-1" d="M323.52,251.53l.1,12.54c-3.26.06-5.72-1.47-7.76-2.76V249l7.66,2.58Z" transform="translate(-26.69 -21.88)"/><path class="cls-1" d="M360.91,136.36l.15,12.72a13.55,13.55,0,0,1-7.49-3.37l-.29-12c3.35.52,5.06.77,7.63,2.68Z" transform="translate(-26.69 -21.88)"/><path class="cls-1" d="M244.82,225.12c-2.79,1.86-4,2.52-7.46,2.72l-.09-12.67,7.5-3,0,12.91Z" transform="translate(-26.69 -21.88)"/><path class="cls-1" d="M348.86,131l0,12.34-7.61-2.65-.13-9,.06-3.46a10.53,10.53,0,0,1,7.65,2.76Z" transform="translate(-26.69 -21.88)"/><polygon class="cls-1" points="296.77 282.12 296.89 295.16 289.13 292.29 289.14 279.49 296.77 282.12"/><path class="cls-1" d="M311.41,194.68l.23,12.59L304,205.11,304,192c3.8.59,4.05,1,7.46,2.69Z" transform="translate(-26.69 -21.88)"/><path class="cls-1" d="M257.36,246.11a30.81,30.81,0,0,1-7.68,2.14l0-12.57,7.37-2.84Z" transform="translate(-26.69 -21.88)"/><path class="cls-1" d="M257.34,298.53l-7.52,2.93-.06-12.82a12.77,12.77,0,0,1,7.55-2.66l0,12.55Z" transform="translate(-26.69 -21.88)"/><path class="cls-1" d="M244.86,93.39a15.79,15.79,0,0,1-7.32,3.19l-.26-13.1,7.49-2.84Z" transform="translate(-26.69 -21.88)"/><polygon class="cls-1" points="322.05 55.85 322.2 69.02 314.62 66.33 314.47 53.32 322.05 55.85"/><polygon class="cls-1" points="296.79 255.91 296.83 268.91 289.17 266.06 289.14 253.22 296.79 255.91"/><path class="cls-1" d="M257.4,140.1l-7.52,3.62c-.29-4.89-.71-9.66.63-13.9l6.76-2,.13,12.33Z" transform="translate(-26.69 -21.88)"/><path class="cls-1" d="M311.45,168.38l.29,5.35,0,1.87-.18,5.3L304,178.74l0-12.87a19.57,19.57,0,0,1,7.42,2.51Z" transform="translate(-26.69 -21.88)"/><polygon class="cls-1" points="284.95 41.28 284.88 54.17 277.25 51.46 277.35 38.62 284.95 41.28"/><path class="cls-1" d="M196.31,127l-.05,6.18-7.4-2.21-.28-13a20.69,20.69,0,0,1,6,1.91c2.56,2,1.75,2.84,1.71,7.11Z" transform="translate(-26.69 -21.88)"/><polygon class="cls-1" points="157.26 277.64 157.42 290.38 149.57 287.7 149.59 275.17 157.26 277.64"/><path class="cls-1" d="M196.25,174.67V186l-7.53-2.77-.17-12.36a12.21,12.21,0,0,1,4.6.9C196.82,173.43,195,172.26,196.25,174.67Z" transform="translate(-26.69 -21.88)"/><path class="cls-1" d="M244.89,304l-7.29,3.21-.29-12.93c2.39-1.48,4.77-2.61,7.69-2.47L244.89,304Z" transform="translate(-26.69 -21.88)"/><polygon class="cls-1" points="157.27 303.93 157.4 316.71 149.72 314.29 149.6 301.53 157.27 303.93"/><path class="cls-1" d="M311.33,220.81l.34,12.64c-3.69-.08-5.11-1.06-7.65-2.21V218.37l7.32,2.44Z" transform="translate(-26.69 -21.88)"/><path class="cls-1" d="M196,278.25l.41,12.88a23.64,23.64,0,0,1-7.62-2.66L188.5,283l.05-2.8.2-4.28,7.24,2.29Z" transform="translate(-26.69 -21.88)"/><polygon class="cls-1" points="230.66 92.57 223.1 95.03 223.05 82.19 230.54 79.58 230.66 92.57"/><polygon class="cls-1" points="218.18 151.22 210.8 153.67 210.68 140.64 218.03 137.9 218.18 151.22"/><path class="cls-1" d="M195.91,252l.5,7.7-.11,5.18a19.91,19.91,0,0,1-7.51-2.65l-.21-12.54Z" transform="translate(-26.69 -21.88)"/><path class="cls-1" d="M270,319.83l-7.35,2.46-.14-12.72c2.86-1.46,4-2.15,7.46-2.68l0,12.94Z" transform="translate(-26.69 -21.88)"/><path class="cls-1" d="M270,267.27l-7.22,2.63-.26-12.84a17.2,17.2,0,0,1,7.52-2.59l0,12.8Z" transform="translate(-26.69 -21.88)"/><polygon class="cls-1" points="218.13 177.08 210.75 180.02 210.62 166.94 218.07 164.03 218.13 177.08"/><path class="cls-1" d="M270,213.91a13.84,13.84,0,0,1-7.22,3.12l-.27-12.92,7.34-3Z" transform="translate(-26.69 -21.88)"/><path class="cls-1" d="M244.94,276.5c-1.48,2.71.33,1.19-3.2,2.95a20.3,20.3,0,0,1-4.2,1.28l-.25-12.64,7.35-3.32Z" transform="translate(-26.69 -21.88)"/><polygon class="cls-1" points="182.39 288.08 182.57 300.89 174.92 298.5 174.9 285.58 182.39 288.08"/><polygon class="cls-1" points="284.9 278.01 284.89 290.67 277.31 288.5 277.3 275.6 284.9 278.01"/><path class="cls-1" d="M270,135.64l-7.26,2.62-.23-12.8a17.35,17.35,0,0,1,7.46-2.61l0,12.79Z" transform="translate(-26.69 -21.88)"/><polygon class="cls-1" points="230.6 145.05 223.15 147.98 223.08 135.03 230.5 132.05 230.6 145.05"/><polygon class="cls-1" points="156.9 172.28 157.48 185.06 149.67 182.69 149.51 175.21 149.64 169.83 156.9 172.28"/><polygon class="cls-1" points="230.66 250.43 223.17 253.34 223.04 240.6 230.28 237.17 230.66 250.43"/><polygon class="cls-1" points="182.19 130.12 182.68 142.98 174.94 140.7 174.89 127.71 182.19 130.12"/><polygon class="cls-1" points="182.45 261.78 182.58 274.62 175.02 272.19 174.9 259.39 182.45 261.78"/><path class="cls-1" d="M311.5,142.14l.14,12.6-7.3-2.22-.43-12.88a17.63,17.63,0,0,1,7.59,2.5Z" transform="translate(-26.69 -21.88)"/><path class="cls-1" d="M209,231.66l.25,12.34-7.6-2.64-.05-12.55c3.82.38,5,1,7.4,2.85Z" transform="translate(-26.69 -21.88)"/><path class="cls-1" d="M171.6,190.55l.15,12.16-7.64-2.59.11-12.45C167.8,187.85,169.11,188.46,171.6,190.55Z" transform="translate(-26.69 -21.88)"/><polygon class="cls-1" points="169.3 203.84 169.69 212.57 169.57 216.77 162.05 214.22 161.84 201.61 169.3 203.84"/><polygon class="cls-1" points="218.13 308.8 210.81 311.53 210.6 298.7 217.91 295.49 218.13 308.8"/><path class="cls-1" d="M269.93,109.42,262.88,112l-.41-12.78a21.18,21.18,0,0,1,7.59-2.58l-.13,12.81Z" transform="translate(-26.69 -21.88)"/><polygon class="cls-1" points="322.02 213.78 322.17 226.39 314.6 224.34 314.62 211.32 322.02 213.78"/><polygon class="cls-1" points="169.25 282.67 169.62 295.73 161.88 292.9 161.96 280.35 169.25 282.67"/><path class="cls-1" d="M171.5,216.71l.23,12.27a11.55,11.55,0,0,1-7.39-2.93l-.13-12.15C167.52,214.17,168.84,214.9,171.5,216.71Z" transform="translate(-26.69 -21.88)"/><path class="cls-1" d="M221.11,210.38l.31,12.9a15.9,15.9,0,0,1-7.52-2.9l.06-12.6,7.15,2.6Z" transform="translate(-26.69 -21.88)"/><polygon class="cls-1" points="243.34 166.24 236.02 168.94 235.86 156.02 243.13 153.04 243.34 166.24"/><path class="cls-1" d="M171.5,163.57l.25,12.88-7.57-2.56,0-3.89v-4.67l0-3.83c3.66.08,4.09.78,7.25,2.07Z" transform="translate(-26.69 -21.88)"/><path class="cls-1" d="M269.92,241.05l-7,2.49-.41-12.61a17,17,0,0,1,7.57-2.7Z" transform="translate(-26.69 -21.88)"/><polygon class="cls-1" points="182.31 182.71 182.53 195.78 174.98 193.19 174.87 180.61 182.31 182.71"/><polygon class="cls-1" points="182.35 235.57 182.58 248.36 174.86 245.7 174.89 233.21 182.35 235.57"/><polygon class="cls-1" points="157.17 330.32 157.41 342.87 149.76 340.47 149.58 327.79 157.17 330.32"/><path class="cls-1" d="M310.89,88.74l.63,13.45c-10.18-1.8-7.56-4.33-7.52-15Z" transform="translate(-26.69 -21.88)"/><path class="cls-1" d="M209,125.79l.29,12.79a22.14,22.14,0,0,1-7.4-2.48l-.3-12.64,7.41,2.33Z" transform="translate(-26.69 -21.88)"/><polygon class="cls-1" points="144.93 247.01 145.13 259.61 137.63 257.37 137.47 253.68 137.51 250.88 137.5 248.08 137.64 244.56 144.93 247.01"/><polygon class="cls-1" points="182.34 156.5 182.53 169.49 175.16 166.94 174.94 154.03 182.34 156.5"/><polygon class="cls-1" points="194.52 162.12 194.81 171.47 194.62 174.97 187.35 172.61 187.24 159.72 194.52 162.12"/><polygon class="cls-1" points="194.64 293.75 194.79 306.6 187.24 303.97 187.28 291.36 194.64 293.75"/><polygon class="cls-1" points="144.9 273.24 145.08 282.64 144.84 286.09 137.56 283.56 137.58 270.88 144.9 273.24"/><path class="cls-1" d="M221.1,237.26l.38,5.61-.06,1.87-.09,4.78-7.22-2.34-.27-12.63a10.89,10.89,0,0,1,7.26,2.71Z" transform="translate(-26.69 -21.88)"/><polygon class="cls-1" points="169.18 124.8 169.68 137.52 162.05 135.33 161.95 122.39 169.18 124.8"/><path class="cls-1" d="M171.55,137.31l.24,12.51a18.81,18.81,0,0,1-7.46-2.31l-.08-12.67,7.3,2.47Z" transform="translate(-26.69 -21.88)"/><polygon class="cls-1" points="144.93 89.13 145.1 101.66 137.6 99.58 137.52 86.68 144.93 89.13"/><polygon class="cls-1" points="145.06 326.07 144.99 338.73 137.6 336.2 137.47 323.64 145.06 326.07"/><polygon class="cls-1" points="321.93 266.19 322.07 279.26 314.56 276.52 314.57 264.23 321.93 266.19"/><polygon class="cls-1" points="194.53 241.17 194.78 254.03 187.38 251.59 187.13 246.21 187.32 238.96 194.53 241.17"/><path class="cls-1" d="M221.3,131.46l.16,12.71a17.25,17.25,0,0,1-7.31-2.6l-.25-12.38Z" transform="translate(-26.69 -21.88)"/><path class="cls-1" d="M171.52,242.58l.22,12.69a21.2,21.2,0,0,1-7.26-2.4l-.29-12.61Z" transform="translate(-26.69 -21.88)"/><path class="cls-1" d="M536.12,245.75,528.65,248c-.65-9.31-1.84-11.6,7.5-11.93Z" transform="translate(-26.69 -21.88)"/><path class="cls-1" d="M524,270l-7.39,2.11c-.65-9.28-1.86-11.48,7.49-11.9Z" transform="translate(-26.69 -21.88)"/><path class="cls-1" d="M516.72,355.51l-.39-4.27.26-5.61,7.33-2.28c.08,8.95,2.17,11.57-7.2,12.16Z" transform="translate(-26.69 -21.88)"/><polygon class="cls-1" points="497.34 310.65 489.85 312.87 489.74 302.53 497.14 300.21 497.34 310.65"/><polygon class="cls-1" points="459.85 302.45 452.29 304.91 452.21 294.51 459.73 292.31 459.85 302.45"/><path class="cls-1" d="M486.54,303.54,479,306l-.13-8.92c1.22-2.31-1-1.07,3.15-2.62a18.67,18.67,0,0,1,4.28-.86l.21,10Z" transform="translate(-26.69 -21.88)"/><polygon class="cls-1" points="509.33 265.63 502 267.85 501.82 257.47 509.24 255.24 509.33 265.63"/><polygon class="cls-1" points="459.73 323.38 452.47 325.85 452.25 315.38 459.77 313.11 459.73 323.38"/><polygon class="cls-1" points="484.95 335.61 477.71 337.9 477.42 327.45 484.95 325.36 484.95 335.61"/><polygon class="cls-1" points="497.25 289.86 490 291.96 489.64 281.74 497.15 279.42 497.25 289.86"/><polygon class="cls-1" points="459.76 363.74 452.44 366.11 452.27 355.61 459.66 353.47 459.76 363.74"/><polygon class="cls-1" points="472.12 256.48 464.73 258.6 464.64 248.29 471.9 246.06 472.12 256.48"/><polygon class="cls-1" points="485.02 231.3 477.56 233.69 477.59 223.16 484.98 221.29 485.02 231.3"/><polygon class="cls-1" points="472.18 277.27 464.71 279.34 464.76 269.05 472.12 267.02 472.18 277.27"/><polygon class="cls-1" points="509.41 307.16 501.89 309.45 501.87 299.46 509.4 296.93 509.41 307.16"/><polygon class="cls-1" points="485.08 314.56 477.53 316.98 477.48 306.93 485.01 304.44 485.08 314.56"/><polygon class="cls-1" points="509.47 286.34 501.85 288.6 501.94 278.23 509.06 276.15 509.47 286.34"/><polygon class="cls-1" points="509.32 328.14 502.09 330.31 501.81 320.12 509.3 317.74 509.32 328.14"/><polygon class="cls-1" points="509.38 348.9 501.99 351.17 501.89 340.83 509.15 338.6 509.38 348.9"/><path class="cls-1" d="M524.89,249.33l-7.36,2.26-.22-9.66a12.78,12.78,0,0,1,7.34-2.56l.24,10Z" transform="translate(-26.69 -21.88)"/><polygon class="cls-1" points="485.06 356.43 477.57 358.76 477.43 348.98 484.81 346 485.06 356.43"/><path class="cls-1" d="M498.83,256.88a14.42,14.42,0,0,1-7.34,2.64l-.14-10,7.38-2.39Z" transform="translate(-26.69 -21.88)"/><polygon class="cls-1" points="509.39 244.34 501.88 246.93 501.83 236.79 509.27 234.48 509.39 244.34"/><polygon class="cls-1" points="472.13 360.19 464.84 363 464.69 352.71 472.13 350.25 472.13 360.19"/><polygon class="cls-1" points="459.84 239.66 452.59 242.47 452.17 232.06 459.32 229.75 459.84 239.66"/><polygon class="cls-1" points="472.07 339.64 464.75 341.96 464.77 331.93 472.14 329.48 472.07 339.64"/><path class="cls-1" d="M179.05,77.37l.21,10.45A15.29,15.29,0,0,1,173,85.5L172.83,76l6.22,1.33Z" transform="translate(-26.69 -21.88)"/><path class="cls-1" d="M178.88,99l.26,10-6.14-2-.22-9.73c3.28-.34,3.22-.23,6.1,1.67Z" transform="translate(-26.69 -21.88)"/><polygon class="cls-1" points="172.77 64.11 172.81 74.75 166.66 72.34 166.6 62.51 172.77 64.11"/><path class="cls-1" d="M199.54,107.22v10.27a16.65,16.65,0,0,1-6-2.06l-.25-9.84Z" transform="translate(-26.69 -21.88)"/><polygon class="cls-1" points="162.41 80.98 162.63 91.06 156.41 89.53 156.24 79.27 162.41 80.98"/><path class="cls-1" d="M429.84,380.73c-7.41-1-6.82-3.56-5.69-11.41C431.85,370.57,429.88,372.44,429.84,380.73Z" transform="translate(-26.69 -21.88)"/><path class="cls-1" d="M401.57,384l0-9.31c2-.84,3.44-1.8,6.11-1.72C407.84,380.28,409.41,383.68,401.57,384Z" transform="translate(-26.69 -21.88)"/><path class="cls-1" d="M417.15,297.85c-2.14,1.42-3,2-6.26,2.09l.06-9.29,6-2.15Z" transform="translate(-26.69 -21.88)"/><path class="cls-1" d="M378.88,273.54c-1.84.94-3.25,1.83-6,1.75-.24-7-1.73-11,6-10.88Z" transform="translate(-26.69 -21.88)"/><path class="cls-1" d="M417.14,217.35c-2,1-3.53,2-6.27,2.1l.06-9.26c1.29-.79,3.46-2.15,5.73-2.18l.48,9.34Z" transform="translate(-26.69 -21.88)"/><path class="cls-1" d="M429.75,219.7l-5.66-1.84-.33-9.77C431.72,209.08,430.23,211.82,429.75,219.7Z" transform="translate(-26.69 -21.88)"/><path class="cls-1" d="M417.06,237.8a16.24,16.24,0,0,1-6,2l-.15-9.65,5.91-2.15.2,9.83Z" transform="translate(-26.69 -21.88)"/><path class="cls-1" d="M398.29,204.28a11.86,11.86,0,0,1-6,2.25l-.07-9.44a11,11,0,0,1,6.15-1.62l0,8.81Z" transform="translate(-26.69 -21.88)"/><path class="cls-1" d="M417.15,358.44a12.09,12.09,0,0,1-6.16,2.09l-.1-9.21,5.8-2.53.46,9.65Z" transform="translate(-26.69 -21.88)"/><path class="cls-1" d="M407.62,180.57c-3.41,1.52-2.57,1.55-6,1.64l.07-9.15c2.63-1.42,2.83-2,5.81-1.75l.15,9.26Z" transform="translate(-26.69 -21.88)"/><path class="cls-1" d="M407.71,261.13a16,16,0,0,1-6,2.06l-.1-9.72,5.76-2,.32,9.67Z" transform="translate(-26.69 -21.88)"/><path class="cls-1" d="M458.38,301.69v10a9.19,9.19,0,0,1-5.9-2.45l-.09-9,6,1.49Z" transform="translate(-26.69 -21.88)"/><path class="cls-1" d="M458.16,221.38l.3,9.35a9.54,9.54,0,0,1-6-2.15l-.05-8.82A7.29,7.29,0,0,1,458.16,221.38Z" transform="translate(-26.69 -21.88)"/><path class="cls-1" d="M417,258.17,411.08,260l-.12-9.47a11.33,11.33,0,0,1,6-1.76Z" transform="translate(-26.69 -21.88)"/><path class="cls-1" d="M448.52,287.21c-7.56-1.19-6.09-3.49-5.62-11.36C450.34,276.59,448.53,279.5,448.52,287.21Z" transform="translate(-26.69 -21.88)"/><path class="cls-1" d="M417.11,318.19a14,14,0,0,1-6.14,2v-9.14l5.76-2.52Z" transform="translate(-26.69 -21.88)"/><path class="cls-1" d="M398.35,345.37a12.41,12.41,0,0,1-5.78,2.53l-.39-9.57c2-.87,3.5-1.9,6-1.67Z" transform="translate(-26.69 -21.88)"/><path class="cls-1" d="M398.19,365.74l-5.72,2.6-.14-10.11c3.46-1.28,2.31-1.68,6.05-1.24l-.19,8.75Z" transform="translate(-26.69 -21.88)"/><path class="cls-1" d="M407.65,321.34,401.92,324l-.33-9.86c1.92-.84,3.62-1.76,6.1-1.79l0,9Z" transform="translate(-26.69 -21.88)"/><path class="cls-1" d="M438.94,374.3l.2,3.1-.11,6.77c-3-.4-2.9-.24-5.56-2.1l-.38-3.73.06-.94.09-4.61,5.7,1.51Z" transform="translate(-26.69 -21.88)"/><polygon class="cls-1" points="381.06 218.88 375.39 221.63 374.79 211.64 380.58 209.26 381.06 218.88"/><path class="cls-1" d="M378.92,253.12c-1.64,1.13-3.17,2.25-5.86,2.33l-.21-9.4,5.75-2.38Z" transform="translate(-26.69 -21.88)"/><path class="cls-1" d="M398.34,224.76a15.27,15.27,0,0,1-6.06,2l0-9.16,5.72-2.59Z" transform="translate(-26.69 -21.88)"/><path class="cls-1" d="M458.32,201.1l0,9.57-5.84-1.86-.13-9.37c2.52-.16,4.13.82,5.93,1.66Z" transform="translate(-26.69 -21.88)"/><polygon class="cls-1" points="412.44 312.13 412.37 322 406.56 320.06 406.46 310.46 412.44 312.13"/><path class="cls-1" d="M378.82,293.84,373.14,296l-.25-9.69a15.68,15.68,0,0,1,5.86-2Z" transform="translate(-26.69 -21.88)"/><path class="cls-1" d="M458.24,261.71l.25,2.64-.19,6.55-5.74-1.39-.2-9.54a9.52,9.52,0,0,1,5.88,1.74Z" transform="translate(-26.69 -21.88)"/><polygon class="cls-1" points="371.38 304.27 365.71 305.85 365.61 296.11 371.39 294.04 371.38 304.27"/><polygon class="cls-1" points="431.77 300.22 431.67 309.72 425.87 308.18 425.81 298.25 431.77 300.22"/><polygon class="cls-1" points="402.96 268.49 403.17 278.26 397.51 276.76 397.07 271.44 397.26 266.83 402.96 268.49"/><polygon class="cls-1" points="403.06 228.16 403.14 238.04 397.37 236.21 397.09 231.26 397.26 226.65 403.06 228.16"/><polygon class="cls-1" points="403.01 167.53 403.2 177.44 397.47 175.86 397.16 165.97 403.01 167.53"/><polygon class="cls-1" points="380.68 178.95 375.05 181 375.01 170.99 380.8 169.05 380.68 178.95"/><path class="cls-1" d="M388.28,228.86l-5.6,2.33-.17-8.87c1.93-2.68,2.6-2.54,5.94-2.83l-.17,9.37Z" transform="translate(-26.69 -21.88)"/><path class="cls-1" d="M467.88,291.45l-.19,4.35-5.76-2.11.07-9.23c5.56.72,6.21,1.22,5.88,7Z" transform="translate(-26.69 -21.88)"/><polygon class="cls-1" points="390.39 256.05 384.5 258.45 384.25 249.01 390 246.35 390.39 256.05"/><path class="cls-1" d="M439.06,262.91l-5.62-1.38-.18-9.93C441,253,439.12,254.68,439.06,262.91Z" transform="translate(-26.69 -21.88)"/><polygon class="cls-1" points="402.89 329.07 403.22 334.02 403.04 338.86 397.38 337.08 397.13 327.39 402.89 329.07"/><polygon class="cls-1" points="371.51 263.36 365.82 265.81 365.57 255.79 371.26 253.74 371.51 263.36"/><polygon class="cls-1" points="371.4 243.63 365.63 245.49 365.7 235.53 371.21 233.62 371.4 243.63"/><path class="cls-1" d="M382.53,291.08l.15-9.71,5.58-1.55c.06,7.9,2.05,10.39-5.73,11.26Z" transform="translate(-26.69 -21.88)"/><polygon class="cls-1" points="412.26 150.86 412.42 154.65 412.36 160.45 406.46 158.72 406.48 155.59 406.62 149.09 412.26 150.86"/><polygon class="cls-1" points="431.53 320.11 431.7 330.04 425.79 327.95 425.71 318.64 431.53 320.11"/><polygon class="cls-1" points="440.81 203.44 441.21 213.47 435.41 211.77 435.23 201.93 440.81 203.44"/><polygon class="cls-1" points="402.64 288.45 403.23 298.56 397.23 296.66 397.13 287.1 402.64 288.45"/><polygon class="cls-1" points="431.37 259.61 431.77 269.4 425.93 267.91 425.76 257.96 431.37 259.61"/><polygon class="cls-1" points="361.56 287.84 355.91 289.88 355.92 279.67 361.42 277.99 361.56 287.84"/><path class="cls-1" d="M448,216.82l.61,9.85c-7.63-1.08-6.54-3.32-5.67-11.36l5.06,1.51Z" transform="translate(-26.69 -21.88)"/><path class="cls-1" d="M448.56,359.65v8.15l-5.11-1.31c-1.18-2.91-1-6.8-.29-10C446.1,356.84,447,357.16,448.56,359.65Z" transform="translate(-26.69 -21.88)"/><polygon class="cls-1" points="412.29 291.84 412.46 301.66 406.8 300.07 406.47 290.26 412.29 291.84"/><polygon class="cls-1" points="380.72 320.02 375.05 322.15 374.89 312.58 380.63 310.09 380.72 320.02"/><path class="cls-1" d="M467.76,346.55l.09,9.54-5.2-1.32c-1.09-3.28-.74-6.24-.5-10.08l5.61,1.86Z" transform="translate(-26.69 -21.88)"/><polygon class="cls-1" points="431.43 158.69 431.79 168.61 425.96 166.96 425.83 157.17 431.43 158.69"/><path class="cls-1" d="M388.29,350l-5.64,2-.15-8.25c1.24-2.45-.84-.93,2.36-2.61a9.59,9.59,0,0,1,3.32-.77Z" transform="translate(-26.69 -21.88)"/><polygon class="cls-1" points="390.37 356.93 384.52 359.32 384.26 349.91 389.94 347.27 390.37 356.93"/><polygon class="cls-1" points="412.19 211.34 412.42 221.15 406.65 219.37 406.44 209.7 412.19 211.34"/><polygon class="cls-1" points="361.5 247.61 355.96 249.52 355.92 239.52 361.45 237.63 361.5 247.61"/><polygon class="cls-1" points="352.09 211.29 346.39 213.63 346.18 204.17 351.82 201.49 352.09 211.29"/><polygon class="cls-1" points="361.56 186.98 356.01 188.91 355.9 178.9 361.47 177.19 361.56 186.98"/><polygon class="cls-1" points="412.11 332.27 412.48 341.94 406.7 340.48 406.5 330.6 412.11 332.27"/><polygon class="cls-1" points="371.36 283.58 365.7 285.75 365.72 275.75 371.19 273.81 371.36 283.58"/><polygon class="cls-1" points="440.84 304.29 441.23 314.14 435.47 312.52 435.25 302.75 440.84 304.29"/><polygon class="cls-1" points="440.77 344.58 441.21 354.61 435.44 352.84 435.29 343.1 440.77 344.58"/><polygon class="cls-1" points="402.81 207.91 403.17 217.66 397.44 216.18 397.21 206.31 402.81 207.91"/><polygon class="cls-1" points="440.99 163.18 441.1 172.99 435.44 171.36 435.29 161.72 440.99 163.18"/><polygon class="cls-1" points="421.8 316.04 421.86 325.97 416.43 324.26 415.96 314.5 421.8 316.04"/><polygon class="cls-1" points="431.46 219.31 431.67 229.12 426.08 227.53 425.75 217.78 431.46 219.31"/><polygon class="cls-1" points="441.05 223.85 441.05 233.74 435.43 231.56 435.37 222.03 441.05 223.85"/><polygon class="cls-1" points="402.66 248.13 403.29 257.97 397.36 256.38 397.12 246.94 402.66 248.13"/><polygon class="cls-1" points="361.63 307.8 356.03 310.16 355.91 300.39 361.48 298.12 361.63 307.8"/><polygon class="cls-1" points="440.76 243.71 441.23 253.61 435.43 251.97 435.31 242.35 440.76 243.71"/><polygon class="cls-1" points="361.59 166.59 356.18 168.96 355.97 158.65 361.5 157.12 361.59 166.59"/><polygon class="cls-1" points="421.59 154.57 421.9 164.49 416.32 162.88 416.07 153.11 421.59 154.57"/><polygon class="cls-1" points="421.56 275.74 421.83 285.59 416.2 283.82 416.06 274.36 421.56 275.74"/><polygon class="cls-1" points="421.31 235.15 421.9 245.36 416.22 243.62 416.04 234.12 421.31 235.15"/><polygon class="cls-1" points="421.56 174.86 421.83 184.71 416.22 182.91 416.04 173.49 421.56 174.86"/><polygon class="cls-1" points="361.59 348 356.08 350.41 355.98 340.56 361.47 338.55 361.59 348"/><path class="cls-1" d="M527.44,217.39a17.51,17.51,0,0,1-6.19,1.88l-.16-8.09,6-1.7.32,7.91Z" transform="translate(-26.69 -21.88)"/><path class="cls-1" d="M517.17,237.86l-5.75,1.76-.42-7.77a12.66,12.66,0,0,1,6.2-1.95l0,8Z" transform="translate(-26.69 -21.88)"/><polygon class="cls-1" points="490.55 199.31 484.69 201.05 484.38 192.96 490.4 191.07 490.55 199.31"/><polygon class="cls-1" points="480.2 202.3 474.22 204.34 474.1 196.14 480.15 194.57 480.2 202.3"/><path class="cls-1" d="M536.43,230.74l-5.49,1.55c-.51-3.49-.84-5.49.41-8.17l5.27-1.7Z" transform="translate(-26.69 -21.88)"/><path class="cls-1" d="M205.27,161.91c-2.08-1.38-1.58.36-1.92-4a18.6,18.6,0,0,1,.41-5.2c3.43.15,3.17-.61,3.68,3.2.89,6.6-2,5.92-2.17,6Z" transform="translate(-26.69 -21.88)"/><path class="cls-1" d="M282.76,338.71l-7.67,3.38-.41-12.87c2.95-2,4.63-2.68,8-2.86Z" transform="translate(-26.69 -21.88)"/><path class="cls-2" d="M90.62,667.57H71.78V653.75a6.41,6.41,0,0,0-1.47-4.49,5.18,5.18,0,0,0-4-1.56,4.84,4.84,0,0,0-4.5,2.2c-.93,1.5-1.37,3.87-1.37,7.16,0,7.22,1.92,13.32,5.71,18.26a81.5,81.5,0,0,0,9.28,10.17c.71.67,1.9,1.77,3.53,3.32a65.33,65.33,0,0,1,5.8,6.74,27.57,27.57,0,0,1,3.32,6.39q3.17,7.08,3.16,18.2v3.63a27.86,27.86,0,0,1-3,13.28,20.5,20.5,0,0,1-8.75,8.69,28.93,28.93,0,0,1-13.62,3q-11.67,0-17.79-6c-4.08-4-6.14-9.71-6.14-17.23V714.2H60.74V729a5.8,5.8,0,0,0,1.43,4.14,5.2,5.2,0,0,0,4,1.52q3.64,0,5-2.18t1.35-8v-5.11a47,47,0,0,0-.5-6.51,17.86,17.86,0,0,0-1.27-4.55A23.41,23.41,0,0,0,67,702.45q-2.61-3.21-9.57-10.15a71.75,71.75,0,0,1-9-10.79,36.88,36.88,0,0,1-4.77-10.3,43,43,0,0,1-1.47-11.81q0-12.45,6.09-19.14c4.08-4.44,9.9-6.67,17.52-6.67q11.73,0,18.26,5.71t6.53,16v12.26ZM103,634.47h11.84l15.81,59.19h.31l17.29-59.19h11.67l5.85,113.44H147.83l-.92-63.77h-.32l-13.28,51.23h-4.4l-13-50.27h-.31l-1.16,62.81H97l6-113.44ZM199.08,672l-6,47.46h12.05L199.37,672Zm-7.88-37.47h16.28L227,747.91H208.72L207,733.14H191.44l-1.8,14.77H171.12ZM253.49,649v32.16q7.51-.06,10.2-1.38a4.78,4.78,0,0,0,2.71-4.69V655a5.13,5.13,0,0,0-2.21-4.5,10.81,10.81,0,0,0-6.3-1.57Zm-18.68-14.49H260.6q12.06,0,18.42,6.23t6.35,18V669c0,5.65-1,9.93-3.11,12.83s-5.64,4.92-10.62,6.05v.26a25.93,25.93,0,0,1,8.07,3.74,12.12,12.12,0,0,1,4.29,5.83,28,28,0,0,1,1.21,9v41.25h-19V703.48a8,8,0,0,0-2.58-6.23,9.92,9.92,0,0,0-6.85-2.33h-3.32v53H234.81Zm58.15,0h44.61V649h-13v98.95h-19V649H293ZM433.62,668.1H414.7v-9.5a9.56,9.56,0,0,0,.15-2c0-6-2.05-8.94-6.16-8.94-2.74,0-4.74.78-6,2.34s-1.92,4.07-1.92,7.48v69.29a8.33,8.33,0,0,0,2.06,5.75,6.94,6.94,0,0,0,10,.42,6.6,6.6,0,0,0,1.9-4.81V711h18.92v14.35a25.29,25.29,0,0,1-1.77,9.57,20.24,20.24,0,0,1-5.3,7.46,23.9,23.9,0,0,1-8.38,4.78,32.66,32.66,0,0,1-10.64,1.66,27.84,27.84,0,0,1-13.33-3.06,21.75,21.75,0,0,1-8.91-8.77,26.8,26.8,0,0,1-3.16-13.25V660.28a30.8,30.8,0,0,1,3.11-14.36,21.63,21.63,0,0,1,9-9.15,29.37,29.37,0,0,1,14.09-3.18,30.11,30.11,0,0,1,13.2,2.81,20.94,20.94,0,0,1,8.91,7.84,22.19,22.19,0,0,1,3.14,11.88v12Zm11.19-33.63h18.84V747.91H444.81Zm27.25,0h44.61V649h-13v98.95h-19V649H472.06Zm49.8,0h18.68L547,679.3h.29l6.35-44.83h18.45l-15.6,58.78v54.66H537.67V693.77l-15.81-59.3ZM55.75,768V812.4h2.92a4.57,4.57,0,0,0,3-.94A3,3,0,0,0,62.84,809V771.88c0-2.6-1.47-3.89-4.41-3.89Zm-10.13-7.37H59a15.37,15.37,0,0,1,7.48,1.74,11.45,11.45,0,0,1,4.8,5,17.15,17.15,0,0,1,1.65,7.77v32a14,14,0,0,1-1.55,6.75A9.93,9.93,0,0,1,67,818.15a15.71,15.71,0,0,1-7.09,1.44H45.62v-59Zm72.61.08h10v48.14c0,2.42,1.1,3.63,3.26,3.63a3.33,3.33,0,0,0,2.76-1.05,5.58,5.58,0,0,0,.87-3.54V760.7h10.13v45.89a14.53,14.53,0,0,1-1.64,7,11.3,11.3,0,0,1-4.66,4.63,14.39,14.39,0,0,1-6.92,1.6,16.71,16.71,0,0,1-7.22-1.47,11.26,11.26,0,0,1-4.82-4.22,11.56,11.56,0,0,1-1.73-6.29V760.7Zm97.43,17.13h-10v-7.19a3.27,3.27,0,0,0-.79-2.33,2.8,2.8,0,0,0-2.14-.81,2.59,2.59,0,0,0-2.4,1.15,7.06,7.06,0,0,0-.74,3.72,14.86,14.86,0,0,0,3.06,9.49,42.18,42.18,0,0,0,5,5.29l1.88,1.72a35,35,0,0,1,3.1,3.5,14,14,0,0,1,1.77,3.33,22.84,22.84,0,0,1,1.69,9.45V807a14.18,14.18,0,0,1-1.62,6.9,10.84,10.84,0,0,1-4.67,4.52,15.77,15.77,0,0,1-7.27,1.54c-4.15,0-7.32-1-9.5-3.09s-3.27-5-3.27-9v-5.88h10.05v7.68a3,3,0,0,0,.76,2.15,3.47,3.47,0,0,0,4.78-.35,8.44,8.44,0,0,0,.72-4.16v-2.65a23.5,23.5,0,0,0-.27-3.39A9.4,9.4,0,0,0,205,799a12.07,12.07,0,0,0-2-3q-1.4-1.66-5.11-5.28a37.38,37.38,0,0,1-4.78-5.6,18.86,18.86,0,0,1-2.55-5.36,21.9,21.9,0,0,1-.79-6.13q0-6.48,3.25-10c2.18-2.31,5.29-3.47,9.36-3.47s7.42,1,9.75,3a10.35,10.35,0,0,1,3.48,8.33v6.37Zm45-17.13h10.05v24.74h7.09V760.7h10v58.89h-10V793.1h-7.09v26.49H260.62Zm85.77,19.44-3.22,24.67h6.43l-3.05-24.67Zm-4.2-19.48h8.69l10.42,58.93h-9.76l-.92-7.68h-8.31l-.95,7.68h-9.89l10.72-58.93Zm62.93,0h6.47c2.68,6.66,4.78,12,6.26,15.91.74,2,1.45,3.85,2.11,5.64s1.26,3.53,1.84,5.19l1.62,5.11h.15V760.62h9.28v59h-6.63q-3-7.12-6.26-15.8c-1.09-2.91-1.89-5.09-2.42-6.59s-1-2.83-1.47-4l-1.52-4.86h-.16v31.28h-9.27Zm83,7.37v16.6h3a4,4,0,0,0,3-1.1,3.9,3.9,0,0,0,1.1-2.86v-8.34a4,4,0,0,0-1.3-3.09,4.8,4.8,0,0,0-3.44-1.21Zm0,23.75v20.73H491q4.25,0,4.25-4V796a4.19,4.19,0,0,0-4.33-4.3ZM478,760.7h12.57a21.17,21.17,0,0,1,8.2,1.35,9.14,9.14,0,0,1,4.7,4.22,15.75,15.75,0,0,1,1.52,7.39v5.88a12,12,0,0,1-.63,4.28,5.65,5.65,0,0,1-2.08,2.6,14.24,14.24,0,0,1-4.13,1.67v.14a11.37,11.37,0,0,1,5.6,3,7.66,7.66,0,0,1,1.69,5.29v12.12a10.88,10.88,0,0,1-1.51,5.8,9.77,9.77,0,0,1-4.26,3.84,14.83,14.83,0,0,1-6.47,1.33H478V760.7Zm71.87,0H571.7v7.46H560v17.62h11.17v7.32H560v19.17h12.16v7.32H549.85V760.7Zm-198-210.31v-20c0-1.37,1.24-1,4.2-1v23.9h-2.26v-1.94C352.43,551.36,351.8,551.54,351.8,550.39Zm-94.17-205.3h-3.89l0,2.93c-7.34,4.13-14.68,1.91-22-.31-7.51-2.26-15-4.53-22.53,0V378c7.51-4.52,15-2.26,22.53,0,7.27,2.2,14.54,4.39,21.81.43l-1,145.18H252c.59,2.54.22,4,.42,4.78l-.19,27.32c-1.56,0-4-.13-8-.13v1.29H228.58v-38h-4.74v45.42H217.5v6.14h-3.91V518.85h-4.74v58.34h-7.49a16,16,0,0,0,.26,2.63H29.84V587h543.5v-7.15H415a21,21,0,0,0,.05,2.26h2.42l.18-.37c.24.12.47.24.69.37h5.89V576H406.69v-2.64h5.95V562.53h-8.3v7.88h-.87V523.67H386.79v33.18H371.17c-.2-2.44-3.07-.92-4.84-1.29-2.13-.44-.06-3-1.52-4.94-1.14-1.5-4.32-1.61-5.5-.94-.92.53-1.05,2.26-1.05,3.62h-1V535.21c0-2.39.32-3.39.32-5.81,1.68,0,4,.53,4.84-1.32.27-.64,0-3.13.33-4.49-5.16,0-9.19-.32-14.21-.32V443.85c0-1.27.23-1.48.23-2.26l-.22-8.07a35.69,35.69,0,0,0-1.48-9.5c-1.46-5.7-4.3-10.09-7.64-14.64-.24-.33-.36-.48-.56-.73A61.17,61.17,0,0,0,334,403.9a28.87,28.87,0,0,0-6.7-4.6l-7.79-3.2a36.27,36.27,0,0,0-9.65-1.65v-1c2.76,0,8.71-.51,8.91-3.64.33-5.1-.08-2.54.9-7.9.22-1.24.65-1.54-.44-2.35,0,3.84-1-.14-1.3,3.23h-1.29v1.94c-2.64,0-1.93-.89-1.93-3.23h-1.94v-2.9a15.25,15.25,0,0,1-2.58-.33v-4.52h-4.52v4.52a15.38,15.38,0,0,0-2.59.33c0,2.76.12,2.9-2.26,2.9,0,3.88.5,2.39-1.93,3.55v-2.26l-1.28.36L296,379.94c-.28-.68-.06-.26-.33-.66-.71,2.66.8,6.67.88,10.58,0,2.19,1.64,2.52,3.63,3a23.8,23.8,0,0,0,5.17.64v1a37.6,37.6,0,0,0-19.63,6.19c-.82.54-1,.8-1.87,1.37a12.82,12.82,0,0,0-1.83,1.4c-6,5.39-10.94,11.25-13.29,19.31a61,61,0,0,0-1.88,23.48c.49,3.63.08,69.51.08,77.07-2.85,0-5.41.1-8,.18l-1.25-178.36ZM259.06,550l-.12-17.58a25.31,25.31,0,0,0,.21-3H263v19.7a15,15,0,0,0-4,.91ZM32,580.83H73.2V532H65.93v15.53H52.36V532H32Zm42.57,0h72.87V532H74.57Zm74.23,0h42.35V532H170.79v15.53H156.6V532h-7.8v48.88Zm42.35-50.29V510.91H32v19.63ZM156.6,557.45h14.19v21H156.6Zm6.86-38.84c3.84,0,7,2.59,7.12,5.84H156.34C156.49,521.2,159.62,518.61,163.46,518.61ZM52.36,557.45H65.93v21H52.36Zm6.56-38.84c3.67,0,6.66,2.59,6.81,5.84H52.12C52.26,521.2,55.25,518.61,58.92,518.61Zm67.54,49.07h.32c1.5,0,2.72.91,2.72,2v9.6h-5.76v-9.6C123.74,568.59,125,567.68,126.46,567.68Zm-30.61,0h.32c1.49,0,2.72.91,2.72,2v9.6H93.12v-9.6C93.12,568.59,94.35,567.68,95.85,567.68Zm10.54-1h9.8v14.16h-9.8Zm32.85-28.48h.29c1.36,0,2.48.82,2.48,1.83v7.06h-5.25V540c0-1,1.11-1.83,2.48-1.83Zm-12.78-2.73h.32c1.5,0,2.72.91,2.72,2v9.6h-5.76v-9.6C123.74,536.37,125,535.46,126.46,535.46Zm-43.4,2.86h.29c1.36,0,2.48.83,2.48,1.84v7.05H80.58v-7.05c0-1,1.11-1.84,2.48-1.84Zm12.79-2.86h.32c1.49,0,2.72.91,2.72,2v9.6H93.12v-9.6C93.12,536.37,94.35,535.46,95.85,535.46Zm8.58-23.54h5.85v9.3h-5.85Zm7.83,0h5.85v9.3h-5.85Zm7.9,0H126v9.3h-5.85Zm7.84,0h5.86v9.3H128Zm7.9,0h5.86v9.3H135.9Zm-39.51,0h5.86v9.3H96.39Zm-7.84,0H94.4v9.3H88.55Zm-7.79,0h5.86v9.3H80.76Zm55.48,22.84v46.07h-3.12V534.76h-.24v-.67L132,532h5.63l-1.1,2.14v.67Zm-14.91,0v46.07h-3.12V534.76H118v-.67L117,532h5.63l-1.1,2.14v.67Zm-19.7,0h3.11v46.07h-3.11Zm-.33,0h3.6v-.67h-3.6Zm-.93-2.81H106l-1.1,2.14h-3.6l-.93-2.14Zm-14.54,2.81h3.11v46.07H85.83Zm-.25,0h3.61v-.67H85.58ZM84.66,532h5.62l-1.09,2.14H85.58L84.66,532ZM72.88,487.71h76.83V498.9H72.88V487.71Zm2,.74h3.55v9.12H74.87Zm5.31,0h3.55v9.12H80.18Zm5.13,0h3.55v9.12H85.31Zm5.71,0h4.39v9.12H91Zm6.41,0h5.19v9.12H97.43Zm7.35,0h5.65v9.12h-5.65Zm7.41,0h5.65v9.12h-5.65Zm7.56,0h5.33v9.12h-5.33Zm7.44,0h4.47v9.12h-4.47Zm6.7,0h3.19v9.12h-3.19Zm5,0h3.19v9.12h-3.19Zm5.68,0h3.19v9.12h-3.19Zm-40.07-21.67,14.22.08c12.59,3.75,22.8,10,30.77,18.49l-76.19-.26c9.48-8.8,19.72-15.38,31.2-18.31ZM70.26,485.09l81.53.23-2.08,2.39H72.88l-2.62-2.62Zm36-25.39h10.59v7.16H106.22ZM26.69,499.38H206.1v7.5H26.69v-7.5Zm169,19.47h4.75v62h-4.75Zm-.37,0h5.49v-.66h-5.49Zm-1.4-2.81h8.56l-1.67,2.15h-5.49Zm-82-71.86h-.51v.44a3.08,3.08,0,0,1-2.89-.05c-1-.34-2-.68-3,0v4.55c1-.68,2-.34,3,0a3.16,3.16,0,0,0,2.87.07l-.19,9.94h-.57v.57h2.09v-.57h-.57l-.22-14.95Zm117,57.95H191.15V516H229V502.13Zm-15.37,78.64v.06H213A3.36,3.36,0,0,1,213.59,580.77Zm-5.12-61.92H214v-.66h-5.49Zm-1.4-2.81h8.56L214,518.19h-5.49Zm16.4,2.81H229v-.66h-5.49Zm0,0H229v-.66h-5.49ZM222.06,516h8.57L229,518.19h-5.49Zm2.05,48.23-.18-.91v-.14c-.09-1.36.16-1.83.16-3.27v-8.56h1.39v9.15c0,1.53-.16,2.36-.19,3.73ZM39.26,509.58H191.15v-2.7H39.26ZM159,533h9.14v12H159V533Zm6.59.61v2.68h1.85v-2.68Zm0,3v4.78h1.85v-4.78Zm0,5.09v2.59h1.85v-2.59Zm-4,2.59v-2.59h-1.85v2.59Zm0-2.9v-4.78h-1.85v4.78Zm0-5.06v-2.68h-1.85v2.68Zm.31-2.68h3.42v2.68h-3.42Zm3.42,3v4.78h-3.42v-4.78Zm0,5.09v2.59h-3.42v-2.59ZM159,562.77h9.14v12H159v-12Zm6.59.61v2.69h1.85v-2.69Zm0,3v4.78h1.85v-4.78Zm0,5.1V574h1.85v-2.59Zm-4,2.59v-2.59h-1.85V574Zm0-2.91v-4.78h-1.85v4.78Zm0-5v-2.69h-1.85v2.69Zm.31-2.69h3.42v2.69h-3.42Zm3.42,3v4.78h-3.42v-4.78Zm0,5.1V574h-3.42v-2.59ZM54.48,533h9.14v12H54.48V533Zm6.59.61v2.68h1.85v-2.68Zm0,3v4.78h1.85v-4.78Zm0,5.09v2.59h1.85v-2.59Zm-4,2.59v-2.59H55.18v2.59Zm0-2.9v-4.78H55.18v4.78Zm0-5.06v-2.68H55.18v2.68Zm.31-2.68h3.43v2.68H57.34Zm3.43,3v4.78H57.34v-4.78Zm0,5.09v2.59H57.34v-2.59Zm-6.29,21.13h9.14v12H54.48v-12Zm6.59.61v2.69h1.85v-2.69Zm0,3v4.78h1.85v-4.78Zm0,5.1V574h1.85v-2.59ZM57,574v-2.59H55.18V574Zm0-2.91v-4.78H55.18v4.78Zm0-5v-2.69H55.18v2.69Zm.31-2.69h3.43v2.69H57.34Zm3.43,3v4.78H57.34v-4.78Zm0,5.1V574H57.34v-2.59Zm20.74-30.33h3.62v4.74H81.51v-4.74Zm2.61.24v1.07h.73v-1.07Zm0,1.17v1.9h.73v-1.9Zm0,2v1h.73v-1Zm-1.6,1v-1h-.73v1Zm0-1.15v-1.9h-.73v1.9Zm0-2v-1.07h-.73v1.07Zm.12-1.07H84v1.07H82.64ZM84,542.52v1.9H82.64v-1.9Zm0,2v1H82.64v-1Zm53.76-3.43h3.62v4.74h-3.62v-4.74Zm2.61.24v1.07h.73v-1.07Zm0,1.17v1.9h.73v-1.9Zm0,2v1h.73v-1Zm-1.61,1v-1H138v1Zm0-1.15v-1.9H138v1.9Zm0-2v-1.07H138v1.07Zm.13-1.07h1.36v1.07h-1.36Zm1.36,1.17v1.9h-1.36v-1.9Zm0,2v1h-1.36v-1Zm-15.5,25.28h3.63v8.69h-3.63v-8.69Zm2.62.44v2h.73v-2Zm0,2.15v3.48h.73v-3.48Zm0,3.7V578h.73v-1.89ZM125.76,578v-1.89H125V578Zm0-2.11v-3.48H125v3.48Zm0-3.68v-2H125v2Zm.13-1.94h1.35v1.94h-1.35Zm1.35,2.14v3.48h-1.35v-3.48Zm0,3.7V578h-1.35v-1.89Zm-33-6.29h3.62v8.69H94.26v-8.69Zm2.61.44v2h.74v-2Zm0,2.15v3.48h.74v-3.48Zm0,3.7V578h.74v-1.89ZM95.27,578v-1.89h-.73V578Zm0-2.11v-3.48h-.73v3.48Zm0-3.68v-2h-.73v2Zm.12-1.94h1.36v1.94H95.39Zm1.36,2.14v3.48H95.39v-3.48Zm0,3.7V578H95.39v-1.89Zm-2.49-38.65h3.62v8.69H94.26v-8.69Zm2.61.44v2h.74v-2Zm0,2.15v3.48h.74v-3.48Zm0,3.71v1.88h.74v-1.88Zm-1.6,1.88v-1.88h-.73v1.88Zm0-2.11v-3.48h-.73v3.48Zm0-3.67v-2h-.73v2Zm.12-2h1.36v2H95.39Zm1.36,2.14v3.48H95.39v-3.48Zm0,3.71v1.88H95.39v-1.88Zm28.14-6.3h3.62v8.69h-3.62v-8.69Zm2.62.44v2h.73v-2Zm0,2.15v3.48h.73v-3.48Zm0,3.71v1.88h.73v-1.88Zm-1.61,1.88v-1.88h-.73v1.88Zm0-2.11v-3.48h-.73v3.48Zm0-3.67v-2h-.73v2Zm.12-2h1.36v2H126Zm1.36,2.14v3.48H126v-3.48Zm0,3.71v1.88H126v-1.88ZM521.44,576.2H503.7v-2.76h17.74ZM444.2,528.71h4.69v44.73H444.2Zm60.55-5h16.69v49.77H504.75Zm-121-3.11H524.48v-2.18H383.75Zm-2.21-5.38H526.69v1.42H381.54v-1.42Zm5.25-13.72H521.44v11.85H386.79Zm-5.25-2H526.69v-2H381.54ZM440.06,497h28.1v-4.18h-28.1Zm4.14,31.74h4.69l1.09-5.2h-6.87l1.09,5.2Zm0,44.73h4.69L450,576h-6.87l1.09-2.6Zm14.64-44.73h4.69v44.73h-4.69Zm0,0h4.69l1.09-5.2h-6.87l1.09,5.2Zm0,44.73h4.69l1.09,2.6h-6.87l1.09-2.6Zm15.07-44.73h4.69v44.73h-4.69Zm0,0h4.69l1.09-5.2h-6.87l1.09,5.2Zm0,44.73h4.69l1.09,2.6h-6.87l1.09-2.6Zm14.79-44.73h4.69v44.73H488.7Zm0,0h4.69l1.09-5.2h-6.87l1.09,5.2Zm0,44.73h4.69l1.09,2.6h-6.87l1.09-2.6Zm-59.95-44.73h4.69v44.73h-4.69Zm0,0h4.69l1.09-5.2h-6.87l1.09,5.2Zm0,44.73h4.69l1.09,2.6h-6.87l1.09-2.6ZM414,528.71h4.69v44.73H414Zm0,0h4.69l1.09-5.2h-6.87Zm0,44.73h4.69l1.09,2.6h-6.87Zm11.63,4.12h57V576h-57v1.54Zm0,2.56h57v-1.54h-57v1.54Zm0,2.75h57v-1.54h-57v1.54Zm57-.79h38.81V576H482.63Zm14.27-26.92h1l.73-.73.73.73h1v1l.73.73-.73.73v1h-1l-.73.73-.73-.73h-1v-1l-.73-.73.73-.73Zm-14.9,0h1l.73-.73.74.73h1v1l.74.73-.74.73v1h-1l-.74.73-.73-.73h-1v-1l-.73-.73.73-.73Zm-14.79,0h1l.73-.73.73.73h1v1l.73.73-.73.73v1h-1l-.73.73-.73-.73h-1v-1l-.73-.73.73-.73Zm-15.48,0h1l.73-.73.73.73h1v1l.73.73-.73.73v1h-1l-.73.73-.73-.73h-1v-1l-.73-.73.73-.73Zm-14.38,0h1l.73-.73.73.73h1v1l.73.73-.73.73v1h-1l-.73.73-.73-.73h-1v-1l-.73-.73.73-.73Zm-15.07,0h1l.73-.73.74.73h1v1l.74.73-.74.73v1h-1l-.74.73-.73-.73h-1v-1l-.73-.73.73-.73Zm-15.2,0h1l.74-.73.73.73h1v1l.73.73-.73.73v1h-1l-.73.73-.74-.73h-1v-1l-.74-.73.74-.73Zm29.3,7.59h6.36v13.14h-6.36Zm14.59-.2h6.29V576H451Zm14.79.34H472v13.48h-6.22Zm-82.11-62.12H524.58v-.52H383.65Zm19.66,23H504.44v-.54H403.31Zm164.36,58.33h-6.83V555.72h-23v26.36H522.68V529.36h45Zm-32.5-37H524.48v30h10.69Zm-4,14.55h-.89l-.63-.59-.62.59h-.89v.84l-.63.6.63.59v.85H529l.62.59.63-.59h.89v-.85l.63-.59-.63-.6Zm17.93-6.72h.53v29.21h-.53Zm5.88,5.74-.4,1.23h-1.29l1.05.75-.4,1.24,1-.77,1,.77-.4-1.24,1-.75h-1.3Zm0,1.51a.32.32,0,0,1,0,.63.32.32,0,1,1,0-.63Zm-32.3-32.35h47.5v-2.91h-47.5Zm0-4.84H572V524H522.68Zm-27.55,5.71h8.29v10.85h-8.29V528.64Zm6,.55v2.44h1.68v-2.44Zm0,2.69v4.34h1.68v-4.34Zm0,4.62v2.35h1.68V536.5Zm-3.67,2.35V536.5h-1.68v2.35Zm0-2.63v-4.34h-1.68v4.34Zm0-4.59v-2.44h-1.68v2.44Zm.28-2.43h3.11v2.43h-3.11Zm3.11,2.68v4.33h-3.11v-4.33Zm0,4.62v2.35h-3.11V536.5Zm-5.7,4.6h8.29V552h-8.29V541.1Zm6,.55v2.44h1.68v-2.44Zm0,2.69v4.34h1.68v-4.34Zm0,4.62v2.35h1.68V549Zm-3.67,2.35V549h-1.68v2.35Zm0-2.63v-4.34h-1.68v4.34Zm0-4.59v-2.44h-1.68v2.44Zm.28-2.43h3.11v2.43h-3.11Zm3.11,2.68v4.34h-3.11v-4.34Zm0,4.62v2.35h-3.11V549Zm-5.7,13.57h8.29v10.85h-8.29V562.53Zm6,.55v2.44h1.68v-2.44Zm0,2.69v4.33h1.68v-4.33Zm0,4.62v2.35h1.68v-2.35Zm-3.67,2.35v-2.35h-1.68v2.35Zm0-2.64v-4.33h-1.68v4.33Zm0-4.58v-2.44h-1.68v2.44Zm.28-2.44h3.11v2.44h-3.11Zm3.11,2.69v4.33h-3.11v-4.33Zm0,4.62v2.35h-3.11v-2.35Zm-21.25-41.75h8.3v10.85h-8.3V528.64Zm6,.55v2.44h1.68v-2.44Zm0,2.69v4.33h1.68v-4.33Zm0,4.62v2.35h1.68V536.5Zm-3.67,2.35V536.5h-1.68v2.35Zm0-2.64v-4.33h-1.68v4.33Zm0-4.58v-2.44h-1.68v2.44Zm.28-2.43h3.11v2.43h-3.11Zm3.11,2.68v4.33h-3.11v-4.33Zm0,4.62v2.35h-3.11V536.5Zm-5.71,4.6h8.3V552h-8.3V541.1Zm6,.55v2.44h1.68v-2.44Zm0,2.69v4.34h1.68v-4.34Zm0,4.62v2.35h1.68V549Zm-3.67,2.35V549h-1.68v2.35Zm0-2.63v-4.34h-1.68v4.34Zm0-4.59v-2.44h-1.68v2.44Zm.28-2.43h3.11v2.43h-3.11Zm3.11,2.68v4.34h-3.11v-4.34Zm0,4.62v2.35h-3.11V549Zm-5.71,13.57h8.3v10.85h-8.3V562.53Zm6,.55v2.44h1.68v-2.44Zm0,2.69v4.33h1.68v-4.33Zm0,4.62v2.35h1.68v-2.35Zm-3.67,2.35v-2.35h-1.68v2.35Zm0-2.64v-4.33h-1.68v4.33Zm0-4.58v-2.44h-1.68v2.44Zm.28-2.44h3.11v2.44h-3.11Zm3.11,2.69v4.33h-3.11v-4.33Zm0,4.62v2.35h-3.11v-2.35Zm-65.8-41.75h8.3v10.85h-8.3V528.64Zm6,.55v2.44h1.68v-2.44Zm0,2.69v4.33h1.68v-4.33Zm0,4.62v2.35h1.68V536.5Zm-3.67,2.35V536.5h-1.67v2.35Zm0-2.64v-4.33h-1.67v4.33Zm0-4.58v-2.44h-1.67v2.44Zm.28-2.43h3.11v2.43h-3.11Zm3.11,2.68v4.33h-3.11v-4.33Zm0,4.62v2.35h-3.11V536.5Zm-5.7,4.6h8.3V552h-8.3V541.1Zm6,.55v2.44h1.68v-2.44Zm0,2.69v4.34h1.68v-4.34Zm0,4.62v2.35h1.68V549Zm-3.67,2.35V549h-1.67v2.35Zm0-2.63v-4.34h-1.67v4.34Zm0-4.59v-2.44h-1.67v2.44Zm.28-2.43h3.11v2.43h-3.11Zm3.11,2.68v4.34h-3.11v-4.34Zm0,4.62v2.35h-3.11V549Zm-5.7,13.57h8.3v10.85h-8.3V562.53Zm6,.55v2.44h1.68v-2.44Zm0,2.69v4.33h1.68v-4.33Zm0,4.62v2.35h1.68v-2.35Zm-3.67,2.35v-2.35h-1.67v2.35Zm0-2.64v-4.33h-1.67v4.33Zm0-4.58v-2.44h-1.67v2.44Zm.28-2.44h3.11v2.44h-3.11Zm3.11,2.69v4.33h-3.11v-4.33Zm0,4.62v2.35h-3.11v-2.35Zm-20.85-41.75h8.3v10.85h-8.3V528.64Zm6,.55v2.44H412v-2.44Zm0,2.69v4.33H412v-4.33Zm0,4.62v2.35H412V536.5Zm-3.67,2.35V536.5H405v2.35Zm0-2.64v-4.33H405v4.33Zm0-4.58v-2.44H405v2.44Zm.28-2.44H410v2.44h-3.11Zm3.11,2.69v4.33h-3.11v-4.33Zm0,4.62v2.35h-3.11V536.5Zm-5.7,4.6h8.3V552h-8.3V541.1Zm6,.55v2.44H412v-2.44Zm0,2.69v4.34H412v-4.34Zm0,4.62v2.35H412V549Zm-3.67,2.35V549H405v2.35Zm0-2.63v-4.34H405v4.34Zm0-4.59v-2.44H405v2.44Zm.28-2.43H410v2.43h-3.11Zm3.11,2.68v4.34h-3.11v-4.34Zm0,4.62v2.35h-3.11V549Zm.28,14.12v2.44H412v-2.44Zm0,2.69v4.33H412v-4.33Zm0,4.62v2.35H412v-2.35Zm-3.67,0h0Zm0-.3v-4.33H405v4.33Zm0-4.58v-2.44H405v2.44Zm.28-2.44H410v2.44h-3.11Zm3.11,2.69v4.33h-3.11v-4.33Zm0,4.62v2.35h-3.11v-2.35Zm24.61-41.75H443v10.85h-8.3V528.64Zm6,.55v2.44h1.67v-2.44Zm0,2.69v4.33h1.67v-4.33Zm0,4.62v2.35h1.67V536.5ZM437,538.85V536.5h-1.67v2.35Zm0-2.64v-4.33h-1.67v4.33Zm0-4.58v-2.44h-1.67v2.44Zm.28-2.44h3.11v2.44h-3.11Zm3.11,2.69v4.33h-3.11v-4.33Zm0,4.62v2.35h-3.11V536.5Zm-5.7,4.6H443V552h-8.3V541.1Zm6,.55v2.44h1.67v-2.44Zm0,2.69v4.34h1.67v-4.34Zm0,4.62v2.35h1.67V549ZM437,551.31V549h-1.67v2.35Zm0-2.63v-4.34h-1.67v4.34Zm0-4.59v-2.44h-1.67v2.44Zm.28-2.43h3.11v2.43h-3.11Zm3.11,2.68v4.34h-3.11v-4.34Zm0,4.62v2.35h-3.11V549Zm9.37-20.32H458v10.85h-8.3V528.64Zm6,.55v2.44h1.68v-2.44Zm0,2.69v4.33h1.68v-4.33Zm0,4.62v2.35h1.68V536.5ZM452,538.85V536.5h-1.68v2.35Zm0-2.64v-4.33h-1.68v4.33Zm0-4.58v-2.44h-1.68v2.44Zm.28-2.44h3.11v2.44h-3.11Zm3.11,2.69v4.33h-3.11v-4.33Zm0,4.62v2.35h-3.11V536.5Zm-5.7,4.6H458V552h-8.3V541.1Zm6,.55v2.44h1.68v-2.44Zm0,2.69v4.34h1.68v-4.34Zm0,4.62v2.35h1.68V549ZM452,551.31V549h-1.68v2.35Zm0-2.63v-4.34h-1.68v4.34Zm0-4.59v-2.44h-1.68v2.44Zm.28-2.43h3.11v2.43h-3.11Zm3.11,2.68v4.34h-3.11v-4.34Zm0,4.62v2.35h-3.11V549Zm9.23-20.32H473v10.85h-8.3V528.64Zm6,.55v2.44h1.68v-2.44Zm0,2.69v4.33h1.68v-4.33Zm0,4.62v2.35h1.68V536.5ZM467,538.85V536.5h-1.68v2.35Zm0-2.64v-4.33h-1.68v4.33Zm0-4.58v-2.44h-1.68v2.44Zm.28-2.44h3.11v2.44h-3.11Zm3.11,2.69v4.33h-3.11v-4.33Zm0,4.62v2.35h-3.11V536.5Zm-5.7,4.6H473V552h-8.3V541.1Zm6,.55v2.44h1.68v-2.44Zm0,2.69v4.33h1.68v-4.33Zm0,4.62v2.35h1.68V549ZM467,551.31V549h-1.68v2.35Zm0-2.64v-4.33h-1.68v4.33Zm0-4.58v-2.44h-1.68v2.44Zm.28-2.43h3.11v2.43h-3.11Zm3.11,2.68v4.33h-3.11v-4.33Zm0,4.62v2.35h-3.11V549Zm55.26-2.22h8.3v10.85h-8.3V546.74Zm6,.55v2.44h1.68v-2.44Zm0,2.68v4.34h1.68V550Zm0,4.63V557h1.68V554.6ZM527.93,557V554.6h-1.68V557Zm0-2.64V550h-1.68v4.34Zm0-4.58v-2.44h-1.68v2.44Zm.28-2.44h3.11v2.44h-3.11Zm3.11,2.68v4.34h-3.11V550Zm0,4.63V557h-3.11V554.6Zm-5.71,8.72h8.3v10.86h-8.3V563.32Zm6,.56v2.43h1.68v-2.43Zm0,2.68v4.34h1.68v-4.34Zm0,4.63v2.35h1.68v-2.35Zm-3.67,2.35v-2.35h-1.68v2.35Zm0-2.64v-4.34h-1.68v4.34Zm0-4.59v-2.43h-1.68v2.43Zm.28-2.43h3.11v2.43h-3.11Zm3.11,2.68v4.34h-3.11v-4.34Zm0,4.63v2.35h-3.11v-2.35Zm23.66-6.9-.4,1.23h-1.29l1.05.76-.4,1.23,1-.77,1,.77-.4-1.23,1-.76h-1.3Zm0,1.51a.32.32,0,1,1-.32.32A.31.31,0,0,1,555,565.8Zm0,4.9-.4,1.23h-1.29l1.05.76-.4,1.23,1-.76,1,.76-.4-1.23,1-.76h-1.3Zm0,1.51a.32.32,0,1,1-.32.32A.31.31,0,0,1,555,572.21Zm0,4.5-.4,1.23h-1.29l1.05.76-.4,1.23,1-.76,1,.76-.4-1.23,1-.76h-1.3Zm0,1.52a.32.32,0,0,1,0,.63.32.32,0,1,1,0-.63ZM543.51,558.6l-.4,1.24h-1.29l1,.76-.4,1.23,1-.76,1,.76-.4-1.23,1.05-.76h-1.29l-.4-1.24Zm0,1.52a.32.32,0,1,1-.31.31A.31.31,0,0,1,543.5,560.12Zm0,4.17-.4,1.23h-1.29l1,.76-.4,1.23,1-.77,1,.77-.4-1.23,1.05-.76h-1.29l-.4-1.23Zm0,1.51a.32.32,0,1,1,0,.63.32.32,0,0,1,0-.63Zm0,4.9-.4,1.23h-1.29l1,.76-.4,1.23,1-.76,1,.76-.4-1.23,1.05-.76h-1.29l-.4-1.23Zm0,1.51a.32.32,0,1,1,0,.63.32.32,0,0,1,0-.63Zm0,4.5-.4,1.23h-1.29l1,.76-.4,1.23,1-.76,1,.76-.4-1.23,1.05-.76h-1.29l-.4-1.23Zm0,1.52a.32.32,0,1,1-.31.31A.31.31,0,0,1,543.5,578.23ZM453.2,474.56h-.59v.58c-1.11.81-2.22.37-3.34-.07s-2.27-.89-3.41,0v6c1.14-.89,2.28-.45,3.41,0s2.21.86,3.31.08l-.22,13h-.65v.75h2.4v-.75h-.66l-.25-19.57ZM348.57,545.22V529.4c2.51,0,1.94-.07,1.94,5.17l0,15.21c-.09,1.49-.26,1.46-1.65,1.58C348.9,548.89,348.57,547.75,348.57,545.22Zm-82,5.81c-1.4,0-1.29.27-1.88-.72l-.3-1.48c0-.07,0-.16,0-.23-.15-2.22.26-3,.26-5.32V529.4h2.26v14.85C266.89,547,266.57,548.36,266.57,551Zm35.19-50a4.46,4.46,0,0,1,.11-3.52l1.18,0a21.69,21.69,0,0,0-1.29-2.26h-1.94c-1,1.5-.78.74-1.29,2.91,1.29-.35,1.27-2.37,2.17.72,1.07,3.68-1.75,4.73-.88,12.84a12.27,12.27,0,0,0,2.22,4.56c1.43,1.53.77-.49,1.56,1.67,1.64,4.52-3.15,5.43-3.12,9.24,0,2.36.33,5.38-2.59,6.16,4.44,6.63,6.78,2.17,6.81,6.09,0,3.19.5,9.52-.68,12H293.69a7.45,7.45,0,0,0,0,2.58c.09,2.42,1,2.83-.43,3.43s-3.32.12-4.72.12c-3.61,0-4.28.94-4.21-2.56.06-3.14-.29-3.26-.59-5.87-.21-1.84,0-4.79,0-6.74h1.94c-.18-2.21-.62-3.53-.08-5.89l1.09-3.76c.38-.72-.95-.48.93-.69,0-2.93-.23-5.67.55-8.49l.4-1.3c1.27-2.63.4-3.42.66-6.35.13-1.43.41-1.13.75-2.47.5-2-.43-1.87,1.19-2.05,0-1.7-.12-3.85,0-5.5.12-1.86.18-.76.66-2.25a7.19,7.19,0,0,0,.24-1.05,11.58,11.58,0,0,0,.75-3.77c0-.9-.09-2.07,0-2.94l1.65-4.8c.75-2,.27-27.37.3-33.28,0-2.37-.33-3.36-.34-5.48l.19-15.32c.51-3.46,1.1-5.59,3.56-8.07,6.09-6.12,19.93-4.54,22.08,5.31,1.11,5.08-.21,11.66.39,17.07l-.05,28.44c0,4.19-.33,7.39-.33,11.3,1.59.18.64-.19,1.23,1.68,1.59,5,0,5.72,2.21,11.68.81,2.17.44,4.61.44,7,1.55.17.77.71,1.76,4.05.57,1.94-.21,4.32.48,6.3l.67,1.92a2,2,0,0,1,.09.22,4.27,4.27,0,0,1,.26.72c.66,2.31.29,5,.29,7.45,1.4.16,1,.59,1.65,2.88a10.49,10.49,0,0,1,.25,1.36c.18,1.76,0,4.25,0,6.1h1.93a42.45,42.45,0,0,1-.34,7.87l-.05.4s0,.15,0,.2c-.21.83-.7,1-1.51,1.53v5.17h-2.91v-1.94h-5.17c-.17-2.14-.55-1.8,0-4.19-8.79,0-6.76,1.19-6.77-7.75,0-2.12-.24-3.19-.33-4.84-.33-6,1.13-8.07-.7-14.16a18.79,18.79,0,0,1-.27-4.89l1.43,2.12c.55.91,1,1.33,1.48,2.07,3.79,0,2.34-1.78,1.46-4l-1.3-2.57a6.61,6.61,0,0,0-1.63-2.24c-1.31-1.17-1.24-.58-2.58-1.3-1.55-.82-1.48-2.41-.83-3.78.91-1.9,0-1.15,0-3.82l-1.17-.44c-.88-.71,0-.37-1.09-1.18-1.28.94-.32,1.46-2.26,1.62,0,2.36-.89,2.3-.49,4.06a1.42,1.42,0,0,0,.2.54c.72,1.46,1,1.74-1,1.65l-1,0-.22,0-1.69-.4c-1.76-7.57-.49-4.9-.07-8.51.07-.67,0-.74-.26-1.11l-.8-.37a.53.53,0,0,1-.16,0,2.51,2.51,0,0,0,.32-1Zm-.64-6.46c.33.34,1.16-.46.37-.17C301.48,494.36,300.57,494,301.12,494.53Zm.64,6.46h.32l-.27-.38Zm.65-5.81.09-.1S302.38,495.15,302.41,495.18Zm-4.52,1.61.09-.09S297.86,496.76,297.89,496.79Zm1.29-1.93.1-.1S299.15,494.83,299.18,494.86Zm1-.33.09-.09S300.12,494.5,300.15,494.53Z" transform="translate(-26.69 -21.88)"/><path class="cls-1" d="M46,404.82l-5.44,1.95c-.3-6.6-1.86-10.64,5.5-10.45Z" transform="translate(-26.69 -21.88)"/><path class="cls-1" d="M46,386.14l-5.36,1.92c-.37-6.79-1.86-10.38,5.49-10.45Z" transform="translate(-26.69 -21.88)"/><path class="cls-1" d="M126.12,397.63c1.45,2.87,1,5.44.79,8.77-6.93-1-5.43-2.9-5.3-10C126,396.12,123.92,396.6,126.12,397.63Z" transform="translate(-26.69 -21.88)"/><path class="cls-1" d="M66.81,413.33l.31-9.2,5-1.13c.11,7.47,2,9.54-5.27,10.33Z" transform="translate(-26.69 -21.88)"/><path class="cls-1" d="M127,383v.94l0,4.09c-7.16-.92-5.29-2.92-5.26-10.19,4.34.81,5.32.43,5.31,5.16Z" transform="translate(-26.69 -21.88)"/><path class="cls-1" d="M80.63,386.74l-.06,3.44a13,13,0,0,1-5.18,2.12l0-9.05c3.54-1.34,1.74-1.4,5.28-1Z" transform="translate(-26.69 -21.88)"/><path class="cls-1" d="M118.47,413.83l-.07,7.4L113,419.37l.11-8.69C116.23,411,117.18,411.51,118.47,413.83Z" transform="translate(-26.69 -21.88)"/><polygon class="cls-1" points="36.78 375.14 31.45 377.09 31.42 368.25 36.7 366.24 36.78 375.14"/><polygon class="cls-1" points="53.9 386.82 48.59 388.93 48.6 379.75 53.7 378.05 53.9 386.82"/><polygon class="cls-1" points="27.96 378.65 22.71 380.93 22.38 372.01 27.49 369.89 27.96 378.65"/><polygon class="cls-1" points="65.62 361.69 65.64 370.39 60.27 368.52 60.34 359.76 65.62 361.69"/><path class="cls-1" d="M100.24,404.92l.66,8.5c-6.85-1.08-6.14-3.22-5.29-10.2C98.42,403.26,98.52,403.57,100.24,404.92Z" transform="translate(-26.69 -21.88)"/><polygon class="cls-1" points="65.48 379.73 65.74 388.6 60.38 387.02 60.3 378.31 65.48 379.73"/><path class="cls-1" d="M100.34,386l.49,9.24c-3-.48-3.4-.77-5.36-2.22l-.07-7.92,4.94.9Z" transform="translate(-26.69 -21.88)"/><path class="cls-1" d="M524,415.85l-7.47,2.26-.1-10.1a17.8,17.8,0,0,1,7.61-2l0,9.84Z" transform="translate(-26.69 -21.88)"/><polygon class="cls-1" points="472.1 444.21 464.73 446.38 464.7 436.08 472.08 433.6 472.1 444.21"/><polygon class="cls-1" points="459.8 406.71 452.32 409.17 452.32 398.65 459.62 396.47 459.8 406.71"/><polygon class="cls-1" points="485.06 418.95 477.5 421.31 477.53 411.08 484.91 408.64 485.06 418.95"/><polygon class="cls-1" points="459.87 427.59 452.28 429.93 452.22 419.66 459.55 417.37 459.87 427.59"/><polygon class="cls-1" points="509.43 452.97 502.11 455.39 501.72 445.12 509.38 442.86 509.43 452.97"/><polygon class="cls-1" points="497.36 414.72 489.98 417.11 489.69 406.84 497.22 404.56 497.36 414.72"/><polygon class="cls-1" points="497.26 435.78 489.83 437.88 489.77 427.66 497.2 425.39 497.26 435.78"/><polygon class="cls-1" points="509.34 432.13 501.87 434.55 501.76 424.34 509.38 422.07 509.34 432.13"/><polygon class="cls-1" points="485.1 373.26 485.05 377.15 477.91 379.61 477.33 369.27 484.96 367.1 485.1 373.26"/><polygon class="cls-1" points="509.38 411.46 501.95 413.74 501.86 403.4 509.17 401.13 509.38 411.46"/><path class="cls-1" d="M511.8,418.51c-1.6,2.7-4.27,3.17-7.42,3.59L504.17,412l7.44-2.22Z" transform="translate(-26.69 -21.88)"/><polygon class="cls-1" points="509.41 390.05 501.96 392.35 501.92 381.95 509.13 379.74 509.41 390.05"/><polygon class="cls-1" points="459.86 444.27 459.74 448.01 452.45 450.86 452.2 440.4 459.78 438.28 459.86 444.27"/><polygon class="cls-1" points="497.31 456.58 489.83 458.75 489.88 448.66 497.26 446.33 497.31 456.58"/><polygon class="cls-1" points="472.11 422.78 464.86 425.52 464.61 415.19 472.12 412.72 472.11 422.78"/><polygon class="cls-1" points="497.26 373.22 489.95 375.39 489.81 365.11 497.25 363.11 497.26 373.22"/><polygon class="cls-1" points="459.81 385.41 452.55 388.37 452.23 377.92 459.7 375.68 459.81 385.41"/><polygon class="cls-1" points="509.36 369.53 501.86 372.02 501.83 362.05 509.33 359.63 509.36 369.53"/><path class="cls-1" d="M439.13,404.1c-8.11-.74-6-3.14-6-11.12C441.27,393.78,439.1,395.92,439.13,404.1Z" transform="translate(-26.69 -21.88)"/><path class="cls-1" d="M410.91,400.8l0-9.26,6-2.19c.31,7.76,1.9,11.25-6,11.45Z" transform="translate(-26.69 -21.88)"/><path class="cls-1" d="M407.72,402.29a12.38,12.38,0,0,1-6.05,2l-.08-9.19,5.74-2.7.39,9.84Z" transform="translate(-26.69 -21.88)"/><path class="cls-1" d="M438.94,424.94l-5.55-2-.28-3.53.05-.93,0-5C441,414.27,439.43,416.71,438.94,424.94Z" transform="translate(-26.69 -21.88)"/><polygon class="cls-1" points="434.28 416.53 434.73 426.48 428.75 424.65 428.56 414.82 434.28 416.53"/><polygon class="cls-1" points="402.93 369.33 403.21 379.2 397.6 377.6 397.04 371.4 397.25 367.71 402.93 369.33"/><path class="cls-1" d="M448.31,425.87l.26,3.84-.07,6.06c-3.84-.54-2.05-.2-5.58-1.74l-.2-3.38,0-2.8.12-3.44,5.44,1.46Z" transform="translate(-26.69 -21.88)"/><path class="cls-1" d="M458.24,402.6l.08,9.94a12.67,12.67,0,0,1-5.9-2.77v-5.28l0-3.34,5.78,1.45Z" transform="translate(-26.69 -21.88)"/><polygon class="cls-1" points="440.93 364.9 441.21 368.59 441.16 371.4 440.9 374.84 435.28 372.86 435.33 363.45 440.93 364.9"/><polygon class="cls-1" points="412.16 434.01 412.5 443.87 406.64 442.19 406.52 432.48 412.16 434.01"/><polygon class="cls-1" points="425.94 431.38 425.99 441.05 420.19 439.08 420.19 429.58 425.94 431.38"/><polygon class="cls-1" points="441.07 385.23 441.23 391.01 441.14 394.8 435.59 393.15 435.26 383.41 441.07 385.23"/><rect class="cls-3" x="3.15" y="571.03" width="543.51" height="14.49"/><polygon class="cls-1" points="273.45 0 323.29 20.23 323.29 26.14 273.65 6.18 273.45 0"/><polygon class="cls-1" points="270.78 10.15 202.84 37.72 202.84 43.55 270.58 16.33 270.78 10.15"/><polygon class="cls-1" points="270.78 19.73 202.84 47.31 202.84 53.14 270.58 25.92 270.78 19.73"/><polygon class="cls-1" points="270.78 0 220.94 20.23 220.94 26.14 270.58 6.18 270.78 0"/><polygon class="cls-1" points="133.86 334.47 129.99 333.33 129.96 89.62 133.84 87.17 133.86 334.47"/><polygon class="cls-1" points="125.63 332.06 121.76 330.93 121.73 93.9 125.61 91.11 125.63 332.06"/><polygon class="cls-1" points="10.16 465.59 8.28 464.55 8.27 244.44 10.15 243.1 10.16 465.59"/><polygon class="cls-1" points="130.5 51.64 135.09 49.63 135.09 79.82 130.5 82.5 130.5 51.64"/><polygon class="cls-1" points="123.57 55.27 128.15 53.27 128.15 83.46 123.57 86.13 123.57 55.27"/><polygon class="cls-1" points="116.48 58.88 121.06 56.88 121.06 87.07 116.48 89.74 116.48 58.88"/><polygon class="cls-1" points="110.26 47.91 135.09 35.83 184.62 53.7 184.62 58.03 135.2 40.27 110.64 52.18 110.26 47.91"/><polygon class="cls-1" points="135.09 29.13 184.62 47 184.62 51.33 135.04 33.57 135.09 29.13"/><polygon class="cls-1" points="530.08 182.22 505.24 170.14 455.71 188.01 455.71 192.35 505.13 174.59 529.69 186.5 530.08 182.22"/><polygon class="cls-1" points="530.08 175.53 505.24 163.45 455.71 181.32 455.71 185.65 505.13 167.89 529.69 179.8 530.08 175.53"/><polygon class="cls-1" points="530.19 168.73 505.35 156.65 455.82 174.52 455.82 178.85 505.25 161.09 529.8 173 530.19 168.73"/><polygon class="cls-1" points="394.31 131.41 444.56 151.8 444.56 157.64 394.31 137.44 394.31 131.41"/><polygon class="cls-1" points="394.31 121.26 426.46 134.31 426.46 140.22 394.31 127.3 394.31 121.26"/><polygon class="cls-1" points="392.08 131.42 346.7 149.84 346.7 155.11 392.08 136.87 392.08 131.42"/><polygon class="cls-1" points="392.08 122.26 363.05 134.04 363.05 139.38 392.08 127.71 392.08 122.26"/><polygon class="cls-1" points="53.7 179.93 103.94 200.32 103.94 206.15 53.7 185.96 53.7 179.93"/><polygon class="cls-1" points="53.7 169.78 85.85 182.83 85.85 188.73 53.7 175.81 53.7 169.78"/><polygon class="cls-1" points="51.47 179.94 6.09 198.35 6.09 203.62 51.47 185.39 51.47 179.94"/><polygon class="cls-1" points="51.47 170.78 22.43 182.56 22.43 187.89 51.47 176.23 51.47 170.78"/><path class="cls-1" d="M387.24,250.54c-1.64,1.13-3.17,2.25-5.86,2.33l-.21-9.4,5.75-2.39Z" transform="translate(-26.69 -21.88)"/><polygon class="cls-1" points="17.01 208.63 15.12 208.78 15.11 240.23 17 240.42 17.01 208.63"/></g></g></svg>