<svg width="45" height="45" viewBox="0 0 45 45" fill="none" xmlns="http://www.w3.org/2000/svg">
<path d="M39 36.6539C35.1464 40.8292 29.245 43.5 22.6299 43.5C16.2894 43.5 10.6043 41.0464 6.75 37.166C9.4294 31.6324 15.6988 27.75 23.0053 27.75C30.0845 27.75 36.1901 31.3943 39 36.6539Z" fill="#458AFF"/>
<path fill-rule="evenodd" clip-rule="evenodd" d="M22.5 42.4286C33.5062 42.4286 42.4286 33.5062 42.4286 22.5C42.4286 11.4938 33.5062 2.57143 22.5 2.57143C11.4938 2.57143 2.57143 11.4938 2.57143 22.5C2.57143 33.5062 11.4938 42.4286 22.5 42.4286ZM22.5 45C34.9264 45 45 34.9264 45 22.5C45 10.0736 34.9264 0 22.5 0C10.0736 0 0 10.0736 0 22.5C0 34.9264 10.0736 45 22.5 45Z" fill="#A9C0FF"/>
<path d="M22.4956 24.75C28.875 24.75 30.4336 19.8435 30.4336 15.438C30.4336 11.0325 26.9026 7.5 22.4956 7.5C18.0901 7.5 14.5576 11.0325 14.5576 15.438C14.5576 19.8435 16.1162 24.75 22.4956 24.75Z" fill="#458AFF"/>
</svg>
